<?xml version="1.0" standalone="no"?>
<!DOCTYPE svg PUBLIC "-//W3C//DTD SVG 1.1//EN" "http://www.w3.org/Graphics/SVG/1.1/DTD/svg11.dtd" >
<svg xmlns="http://www.w3.org/2000/svg">
<metadata></metadata>
<defs>
<font id="basrascript" horiz-adv-x="1114" >
<font-face units-per-em="2048" ascent="1638" descent="-410" />
<missing-glyph horiz-adv-x="1024" />
<glyph horiz-adv-x="0" />
<glyph horiz-adv-x="682" />
<glyph unicode=" "  horiz-adv-x="1024" />
<glyph unicode="&#x09;" horiz-adv-x="1024" />
<glyph unicode="&#xa0;" horiz-adv-x="1024" />
<glyph unicode="!" horiz-adv-x="532" d="M106 35l6 19q5 20 21.5 43.5t47 42t83.5 18.5q39 0 60.5 -30t21.5 -65q0 -16 -44 -52t-122 -36q-41 0 -57.5 11.5t-16.5 48.5zM129 889v198.5t9 198.5t33 153.5t71 61.5q51 0 75.5 -41t34.5 -105.5t10 -141v-150.5l4 -95q3 -94 -6.5 -223t-37 -261t-86.5 -208 q-14 14 -33 78t-35 152t-27.5 190.5t-11.5 192.5z" />
<glyph unicode="$" horiz-adv-x="1081" d="M20 1040q0 37 32 59.5t85 35t123 15.5t146 3h18q0 113 -8 186.5t-15 90.5q57 29 98.5 43t112.5 30v-350h238q47 0 94 -19.5t39 -48.5q-4 -12 -28.5 -37.5t-58.5 -52t-68.5 -48t-55.5 -25.5q-35 -8 -62 13l-28 21q31 14 60.5 36t48 43.5t21.5 38t-17 22.5h-463 q-53 0 -63.5 -21.5t-10.5 -44.5q0 -35 57.5 -76t110.5 -82q33 -27 79 -57.5t74.5 -50t32.5 -21.5q59 -39 97.5 -90t38.5 -102q0 -39 -38 -99.5t-98 -127.5v-250q-27 -16 -84 -49t-118 -41q0 18 6 60t6 101q-88 -70 -175 -110.5t-153 -40.5q39 90 135.5 166t196.5 168 q86 80 122 129t30.5 83.5t-42 60.5t-94.5 58q-72 41 -146.5 87.5t-136 95.5t-100.5 99t-39 99z" />
<glyph unicode="&#x26;" horiz-adv-x="1384" d="M6 305q0 92 42 163t92 123t92 87t42 53q0 20 -21.5 42t-46 51.5t-46 71.5t-21.5 103q0 63 25.5 99.5t67.5 54.5t93.5 22.5t104.5 4.5q117 0 200 -32t83 -126q0 -43 -32 -92t-70 -92t-69.5 -75t-31.5 -40q0 -10 46 -67.5t103.5 -123t109.5 -119t65 -53.5q8 0 41.5 48.5 t72.5 126t70 176t31 198.5q0 82 -15.5 121t-46.5 53.5t-75 15.5t-101 7q23 39 53.5 49t128.5 10q66 0 106 -10t60.5 -33.5t26.5 -63.5t6 -102q0 -133 -44 -243.5t-96.5 -199.5t-96.5 -152.5t-44 -100.5l25 -30q25 -29 60.5 -64t77.5 -64.5t77 -29.5q14 0 19.5 11t8.5 27.5 t8 33t17 26.5q20 14 36.5 10t27 -17t16.5 -29.5t8 -29.5q4 -41 -50 -70.5t-107 -29.5q-68 0 -116 20.5t-85 46t-65.5 46t-57.5 20.5q-23 0 -50.5 -22.5t-72.5 -50t-114.5 -50t-176.5 -22.5q-70 0 -139.5 17.5t-125.5 56t-91 97t-35 142.5zM213 319q0 -109 70.5 -178 t181.5 -69q45 0 89 24.5t80 53t58 52.5l21 25q0 6 -39 55.5t-93.5 112t-110.5 124.5t-93 95q-82 -70 -123 -146.5t-41 -148.5zM287 1022q0 -41 34.5 -84t64.5 -66.5t34 -27.5q14 0 38.5 20.5t49 50t42 59.5t17.5 48q0 49 -41 75.5t-96 26.5q-63 0 -103 -29.5t-40 -72.5z" />
<glyph unicode="'" horiz-adv-x="434" d="M106 1274q-4 70 34 109.5t71 51t39 13.5q14 0 33.5 -24.5t31 -46t13.5 -25.5q-8 -51 -7 -48t4 22.5t3 23.5l-3 -16q-3 -15 -16 -36h6q-61 -106 -89 -132l-87 -81l23 39q22 39 10 103h-6q-20 0 -40 13t-20 34z" />
<glyph unicode="," horiz-adv-x="434" d="M94 45q-4 70 34 110t70.5 51t39.5 13q14 0 33.5 -24.5t30.5 -46t13 -25.5q-8 -51 -7 -48t4 22.5t3 23.5l-3 -15q-3 -16 -15 -36h6q-61 -106 -90 -133l-86 -80l23 39q22 38 10 102h-6q-20 0 -40 13.5t-20 33.5z" />
<glyph unicode="-" horiz-adv-x="663" d="M81 640q3 42 21.5 63.5t22.5 23.5q10 10 70.5 10t130 -3t127 -8t59.5 -7q4 0 28.5 -3t35 -25.5t-40.5 -74.5q-8 -6 -68.5 -20t-133.5 -26.5t-133.5 -18.5t-68.5 0q-53 47 -50 89z" />
<glyph unicode="." horiz-adv-x="434" d="M94 45q-4 70 34 110t70.5 51t39.5 13q12 0 26.5 -14.5t25.5 -31.5t18 -33.5t7 -18.5q0 -4 -9 -32t-45 -59.5t-107 -31.5q-20 0 -39 13.5t-21 33.5z" />
<glyph unicode="/" horiz-adv-x="532" d="M-35 -90q-20 61 0.5 170.5t62.5 240t97 265.5t104.5 244.5t82.5 179.5l34 69q25 68 49.5 147t53 143.5t64.5 100t83 17.5q45 -16 37 -84t-41 -159t-77 -194.5t-71 -189.5q-27 -80 -68.5 -180t-90.5 -203.5t-100.5 -203t-96.5 -178.5t-78 -129t-45 -56z" />
<glyph unicode="0" horiz-adv-x="1409" d="M31 997q0 244 101 371t290 148q109 12 213 14t219 -6q199 -16 304.5 -161.5t113.5 -365.5q4 -125 -41 -296t-129 -328.5t-202 -269t-257 -117.5q-53 -2 -154.5 59t-204 188t-178 317.5t-75.5 446.5zM270 954q0 -217 41 -378.5t98.5 -269t120 -160t105.5 -52.5 q86 0 158.5 99.5t125 239.5t81 294t28.5 262q0 84 -14.5 165t-54 145.5t-112.5 104.5t-188 40q-109 0 -182.5 -35t-119.5 -98.5t-66.5 -154.5t-20.5 -202z" />
<glyph unicode="1" horiz-adv-x="442" d="M33 16q6 31 10 51.5t6 38t3 36t3 48.5q2 111 4 263.5t2 312.5t-1 309.5t-5 251.5q-2 27 0 39t2 23.5t-5 28.5t-19 52q57 29 106 43.5t121 30.5v-1429q-12 -8 -37.5 -22.5t-57.5 -30t-67 -29t-65 -17.5z" />
<glyph unicode="2" horiz-adv-x="1277" d="M16 1260q0 78 41 124t108.5 68.5t157 28.5t185.5 6q111 0 208 -9.5t168.5 -43t113.5 -98t42 -173.5q0 -92 -51 -196.5t-129 -209t-167 -204.5t-166.5 -184t-129 -146.5t-51.5 -91.5q0 -16 43 -29.5t119 -13.5h428q33 0 60.5 16.5t27.5 40.5q0 2 -19.5 45t-37.5 89l33 1 q32 1 55 -10q18 -8 36.5 -33.5t33 -55t23.5 -57.5t9 -38q0 -45 -23.5 -59.5t-50.5 -14.5h-1046q31 68 98.5 148t152.5 171t176 189t167 202.5t124 211t48 213.5q0 147 -89 213.5t-220 66.5q-182 0 -253 -70.5t-71 -164.5q0 -12 6 -56t8 -77q-100 35 -134 85t-34 116z" />
<glyph unicode="3" horiz-adv-x="1179" d="M8 360q0 53 22.5 94.5t51.5 69t54.5 42t33.5 16.5q10 -57 8 -107.5t-2 -83.5q0 -86 28.5 -150.5t78 -106.5t113 -62.5t130.5 -20.5q74 0 131.5 32t97.5 80t60.5 101t20.5 96q0 115 -40 209.5t-97.5 165t-118 118.5t-99.5 71l44 49t96.5 115.5t96.5 137t44 113.5 q0 41 -37 60.5t-84 29t-94 10.5t-66 3q-39 4 -83 3t-81.5 -10.5t-62.5 -29t-25 -51.5q0 -6 11.5 -31t27 -56.5t29.5 -61t22 -46.5h-106q-14 14 -35.5 43t-43 65t-37 70.5t-15.5 61.5q0 43 44 68.5t109.5 40t140.5 19.5t136 5q49 0 122 -6t140.5 -24.5t115.5 -50.5t48 -83 q0 -33 -35 -92t-76 -116.5t-75.5 -101.5t-34.5 -46q0 -25 53 -73t117.5 -124t118 -181.5t53.5 -242.5q0 -119 -48 -200.5t-123 -132t-167 -73t-180 -22.5q-45 0 -133.5 13.5t-177.5 54.5t-155.5 119.5t-66.5 209.5z" />
<glyph unicode="4" horiz-adv-x="1089" d="M37 528q0 119 49 272.5t129 295t180.5 251t202.5 140.5q45 14 101.5 15t105.5 -2t83 -8l34 -5q-8 -27 -16.5 -43.5t-12.5 -46.5l-5 -223q-5 -222 9 -637l53 -54q-16 -20 -34.5 -36.5t-24.5 -30.5l2 -252l4 -38q4 -38 21 -65q-16 -12 -69.5 -28.5t-162.5 -48.5 q0 55 1 121.5t1 130t-2 117t-6 79.5q-2 8 -59.5 10t-137.5 3t-163.5 -1t-137 -3t-57.5 -1q-51 0 -69.5 29.5t-18.5 58.5zM255 611.5q-1 -17.5 5 -36t23.5 -34t56.5 -19.5h97h102.5h91.5h65v81t1 193.5t1 235.5t1 205t1 102q2 31 -5 52.5t-40 35.5q-37 18 -107.5 -51 t-138 -187t-114.5 -266.5t-39 -287.5q0 -6 -1 -23.5z" />
<glyph unicode="5" horiz-adv-x="999" d="M8 -213q39 51 101.5 96t134 91t144.5 98.5t132.5 119t96 154.5t36.5 203q0 150 -59 230.5t-151.5 119.5t-203 46t-210.5 7q0 10 13 90t30.5 177.5t32 182.5t14.5 101q82 -2 151.5 -2t137 1t137 1h151.5q6 0 47 -1t88.5 -15t45.5 -47q-2 -27 -21.5 -65t-51.5 -73.5 t-74 -62.5t-89 -35q6 47 21.5 73t30 41t25.5 27.5t11 34.5q0 2 -7 13.5t-19.5 24t-28 22.5t-33.5 10q-47 0 -110.5 -1t-121 -3t-97.5 -3l-40 -1q-8 -6 -18 -59.5t-18.5 -115t-13.5 -112.5l-5 -51q76 0 185.5 -13.5t212 -62.5t175 -147.5t72.5 -266.5q0 -174 -95 -323.5 t-230.5 -260t-280.5 -175t-248 -68.5z" />
<glyph unicode="6" horiz-adv-x="1064" d="M23 627q0 133 47 293.5t130 298t195.5 225.5t243.5 76q-49 -39 -109.5 -110t-117 -157t-103.5 -179t-67 -177q29 18 67.5 29.5t79.5 17.5t78 8t59 2q186 -8 301 -108.5t115 -263.5q0 -84 -32.5 -186.5t-92 -192.5t-144.5 -151.5t-192 -61.5q-55 0 -133 35.5t-150.5 112.5 t-123.5 198t-51 291zM217 567q2 -139 34 -231t74 -146.5t86 -76t70 -19.5q68 4 118 62.5t84 135.5t51.5 153.5t19.5 117.5q4 80 -19.5 136.5t-63.5 92t-90.5 52t-99.5 16.5q-137 0 -202.5 -65.5t-61.5 -227.5z" />
<glyph unicode="7" horiz-adv-x="1064" d="M32.5 1425.5q-12.5 47.5 24.5 65.5q6 4 82 4h185.5t235.5 -1t233.5 -3t178.5 -3l72 -1q-29 -84 -122 -210t-194 -291t-181 -366.5t-80 -437.5q0 -96 12.5 -159.5t30.5 -110.5t38.5 -86t37.5 -88h-105q-80 37 -128 78t-75.5 90t-37 106.5t-9.5 124.5q0 117 43 247t109 262 t143.5 256t147 225.5t119 173t59.5 98.5q-33 23 -88 28t-135 7q-94 4 -162 2t-162 -2q-37 0 -71.5 -15.5t-34.5 -52.5l25 -51q26 -51 67 -125l-33 -5q-33 -5 -61 5q-12 6 -49 47t-70 91t-45.5 97.5z" />
<glyph unicode="8" horiz-adv-x="1155" d="M2 356q0 96 50 187.5t117 166t129 129t87 79.5q-45 45 -89 87t-80 86t-58.5 95t-22.5 117q0 92 42 143t106.5 74.5t143.5 28.5t153 5q88 0 163.5 -10t131 -37.5t87 -77t31.5 -126.5q0 -45 -21.5 -97.5t-56 -102.5t-81 -95t-93.5 -76q14 -37 70.5 -87t120 -119t114 -160 t50.5 -210t-52.5 -190.5t-133.5 -108.5t-180 -47t-193 -10q-156 0 -259.5 31.5t-165 82t-86 114t-24.5 128.5zM229 373q0 -115 85 -191t223 -76q129 0 226 57.5t114 209.5q6 53 -28 131t-84 150.5t-105.5 123.5t-94.5 51q-8 0 -62 -34.5t-114.5 -96t-110 -145.5t-49.5 -180z M326 1333q0 -61 26.5 -120.5t64.5 -105.5t79 -73.5t69 -27.5q20 0 59.5 30.5t79 77.5t69.5 105.5t30 113.5q0 76 -72 112t-166 36q-43 0 -85 -5.5t-76.5 -20.5t-56 -45t-21.5 -77z" />
<glyph unicode="9" horiz-adv-x="1056" d="M8 1133q0 111 38 187.5t100.5 123.5t145.5 67.5t173 20.5q166 0 261 -50t141 -124t57.5 -159t11.5 -155q0 -113 -27.5 -249t-77 -275t-116 -271t-145 -235.5t-165 -168t-176.5 -70.5q2 6 36 54t83 124t105.5 170t103.5 189.5t77 185.5t23 157q-63 -29 -104 -57.5 t-102 -28.5q-76 0 -155 51.5t-142.5 133.5t-104.5 182.5t-41 196.5zM197 1163q0 -143 36.5 -240.5t84 -154.5t87 -81.5t46.5 -24.5q84 2 137 59t85 132t46 149.5t18 113.5q8 78 -11 138.5t-59 102.5t-96.5 63.5t-119.5 21.5q-102 0 -178 -68.5t-76 -210.5z" />
<glyph unicode=":" horiz-adv-x="434" d="M94 500q-4 70 34 109.5t70.5 51t39.5 13.5q12 0 26.5 -14.5t25.5 -32t18 -33.5t7 -19q0 -4 -9 -31.5t-45 -59t-107 -31.5q-20 0 -39 13.5t-21 33.5zM106 119q-4 70 34 109.5t71 51t39 13.5q12 0 26.5 -14.5t25.5 -32t18.5 -33.5t7.5 -18q0 -4 -9.5 -32t-45 -59.5 t-107.5 -31.5q-20 0 -39 13.5t-21 33.5z" />
<glyph unicode=";" horiz-adv-x="434" d="M82 524q-4 70 34 110t70.5 51t38.5 13q12 0 26.5 -14t26 -31.5t18.5 -34t7 -18.5q0 -4 -9 -31.5t-45 -59.5t-108 -32q-20 0 -38.5 13.5t-20.5 33.5zM106 143q-4 70 34 110t71 51l39 13q14 0 33.5 -24.5t31 -46t13.5 -25.5q-8 -51 -7 -48t4 22.5t3 23.5l-3 -15 q-3 -16 -16 -36h6q-61 -106 -89 -133l-87 -80l23 39q22 39 10 102h-6q-20 0 -40 13.5t-20 33.5z" />
<glyph unicode="?" horiz-adv-x="1105" d="M18 1405q0 33 13.5 50.5t35 26.5t48 14t51.5 13h696q4 -2 30 -13t56.5 -48t30.5 -102q0 -57 -40 -129t-98.5 -153t-128 -166t-128 -167t-98.5 -155.5t-40 -131.5q0 -63 8.5 -91.5t30.5 -76.5l-75 9q-59 25 -92 68.5t-33 119.5q0 43 34.5 111.5t87 149.5t113 169 t112.5 168t87 145.5t35 102.5q0 51 -53.5 79.5t-104.5 28.5l-356 -8q-74 0 -74 -57q0 -35 22.5 -72t51.5 -92h-103q-23 16 -44 45t-37.5 59.5t-27 58.5t-10.5 44zM315 45q-4 70 38 103.5t79 40t43 6.5q27 0 44.5 -34t17.5 -40q0 -4 -9.5 -32t-45.5 -59.5t-107 -31.5 q-20 0 -39 13.5t-21 33.5z" />
<glyph unicode="A" horiz-adv-x="1236" d="M-10 -12q16 12 26.5 64t16.5 125t7 157t1 160.5t-2 137t-2 87.5v13q0 44 11 111q13 77 52 166t106.5 179t174 162.5t255 119t349.5 46.5h107v-1469q-37 -14 -98.5 -36.5t-119.5 -37.5q2 61 7 117q6 115 9 221.5t3 231.5q-6 4 -21 4q-16 1 -46 -5q-54 -10 -125.5 -29 t-151.5 -45t-146.5 -49.5t-110.5 -43t-44 -25.5v-68.5t2 -82.5t4 -78t6 -55q-2 0 -83 -25t-187 -53zM233 600q0 -27 1.5 -76t7.5 -86q51 20 159.5 55t219 70t191.5 62.5t77 33.5q6 259 10 407q3 99 3 166q0 34 -1 59q-2 77 -13 101.5t-36 32.5q-19 7 -44 7q-48 0 -118 -26 q-104 -40 -206.5 -142.5t-177.5 -268.5q-73 -162 -73 -383v-12z" />
<glyph unicode="B" horiz-adv-x="1290" d="M29 12q18 45 25 57.5t12 63.5l-5 1176q-2 31 1.5 53t3.5 40.5t-5.5 38t-23.5 46.5h825q78 0 135.5 -55.5t57.5 -137.5q0 -57 -21.5 -100t-56.5 -80t-81 -73.5t-93 -84.5q12 -18 73.5 -76.5t130 -150.5t125 -214t56.5 -267q0 -41 -20.5 -83t-48 -76t-56.5 -55.5t-45 -21.5 l-70 -1q-69 -1 -175.5 -1t-230.5 -1t-234.5 -1t-188.5 1t-90 3zM270 100h504q49 0 82 21.5t52.5 49.5t27.5 55.5t10 43.5q3 25 3 49q0 85 -33 165q-42 104 -103 186t-126.5 132t-100.5 52q-8 0 -56.5 -19.5t-104.5 -44t-103.5 -46t-51.5 -23.5v-621zM270 834q3 -3 12 -3 q14 0 40 7q44 12 108 41.5t136.5 73.5t134 96.5t103.5 112t44 118.5v8q0 30 -14 56q-16 30 -42 51.5t-58 33t-62 11.5l-62 4q-61 4 -136 6q-23 1 -45 1q-49 1 -93 -3q-62 -4 -66 -21v-593z" />
<glyph unicode="C" horiz-adv-x="1253" d="M18 1217q0 158 83 233.5t196 75.5h696q10 0 35 -7.5t49.5 -18.5t44 -27.5t19.5 -34.5q0 -31 -19.5 -59.5t-47 -59.5t-61.5 -63.5t-61 -69.5h-121q20 47 43 71.5t43.5 43t34 38t13.5 54.5q0 39 -29 56t-62 17h-399q-93 0 -153 -86q-55 -78 -55 -199q0 -12 1 -24 q8 -180 61.5 -322.5t132.5 -255t172 -200.5t179 -160t154.5 -131t99.5 -117q-90 16 -202.5 75.5t-229.5 153t-227.5 212t-197.5 252t-139.5 275t-52.5 278.5z" />
<glyph unicode="D" horiz-adv-x="1359" d="M8 4q4 8 10.5 29.5t10.5 68.5l1 74t2 191.5t2 262t2 286.5v93q0 91 -1 173q-2 124 -4 200q-2 63 -10.5 94t-12.5 40h875q102 0 170.5 -33t109.5 -88.5t57.5 -128t16.5 -150.5q0 -51 -24.5 -143t-78 -201.5t-135 -227.5t-194.5 -222.5t-259.5 -184.5t-328.5 -112 q-57 -9 -117 -19q-33 -5 -57 -6q-21 0 -35 4zM254 123q141 20 273 123.5t233.5 245t163 298t61.5 281.5q0 70 -15.5 137.5t-52 121.5t-96 87t-147.5 33q-63 0 -136 2t-135.5 2t-104.5 -5t-44 -19v-1307z" />
<glyph unicode="E" horiz-adv-x="1155" d="M8 1532h942q45 0 61.5 -24.5t16.5 -65.5q0 -37 -45 -76t-121 -115h-119q41 49 87.5 90t46.5 89q0 29 -23 40q-22 11 -56 15q-27 3 -60 3h-16q-42 -1 -81 -1q-63 1 -114 1h-47q-68 -1 -163 -1q-63 0 -68 -46t-5 -130q0 -45 3 -83t15 -57q31 -8 94.5 -8.5t137 -0.5 t146.5 -3.5t124 -21.5q-2 -2 -17.5 -14.5t-34 -28t-36 -26.5t-21.5 -9q-33 12 -94 17t-123 6h-58.5h-53.5q-50 -1 -60 -3q-12 -2 -16 -21.5t-5 -48t0 -59t-1 -53.5q-1 -17 -1 -36q0 -39 3 -83q4 -68 30.5 -147.5t85 -169.5t162.5 -187q47 -43 99.5 -80.5t98.5 -69.5 t84 -60.5t56 -53.5h-12q-50 0 -122 27q-81 31 -171 88t-180 135t-163 165t-118 178t-45 175v664q0 23 -5 35t-38 55z" />
<glyph unicode="F" horiz-adv-x="1146" d="M23 -10q2 8 14 39.5t14 83.5l-4 1286q-2 49 -11 78.5t-13 38.5h79h181.5h207h152.5h132t131.5 -7.5t99 -26t38.5 -55.5q0 -25 -12 -42t-33.5 -36.5t-52.5 -44t-67 -63.5h-127q27 41 50 62.5t41.5 35t29 25.5t10.5 35q0 20 -21.5 39.5t-52.5 19.5h-555q-4 -6 -7 -50 t-3 -97.5t3 -100.5t15 -63q4 -4 57.5 -6t125 -2t146.5 1t122 2t51 1q-37 -55 -58.5 -79t-29.5 -24l-62 6q-63 7 -141 10q-58 2 -112 2h-35q-68 -1 -80 -18l2 -884q10 -80 31 -93q-18 -10 -56.5 -20t-78.5 -19.5t-74.5 -18.5t-46.5 -15z" />
<glyph unicode="G" horiz-adv-x="1335" d="M37 1145q0 68 16.5 137.5t48 124.5t79.5 90t110 35h827q35 0 69 -28.5t34 -61.5q0 -8 -32 -66.5t-159 -185.5h-145q12 41 38.5 67.5t53.5 48t47 42t20 51.5t-28.5 52.5t-59.5 21.5h-460q-111 0 -166.5 -106.5t-55.5 -264.5q0 -113 37 -227.5t95.5 -220t131 -195.5 t145.5 -151.5t135 -90.5q38 -18 68 -18q20 0 36 8q14 6 19 19.5t5 50t-2 105.5t-2 185v371q0 31 -18.5 46t-45 21.5t-58.5 6.5h-58q-57 0 -92 -2t-86 -23q25 47 48 65.5t56 18.5h475q-16 -14 -26 -113v-811q6 -98 10 -127q-21 -6 -48 -6q-49 0 -117 18q-105 29 -229 98 t-251 172.5t-230.5 233.5t-169 284.5t-65.5 324.5z" />
<glyph unicode="H" horiz-adv-x="1286" d="M37 -12l9 40q9 40 11 109l-2 1186q-6 119 -18 135q12 4 39.5 11.5t61.5 17.5t69 21.5t61 23.5l2 -565h4q26 -1 94 19q74 22 167.5 52.5t186.5 63.5t150.5 54.5t61.5 23.5v282q16 8 46 17.5t63.5 20.5t66.5 22.5t55 21.5q-2 -4 -14 -36.5t-14 -82.5v-90t1 -227t1 -299 v-303v-240.5v-113.5q4 -39 12 -62.5t14 -28.5l-239 -73v1083q-25 -4 -101.5 -26.5t-169 -52t-184.5 -59.5t-148.5 -48.5t-60.5 -20.5l-4 -694q4 -35 12.5 -59.5t16.5 -32.5q-66 -18 -127.5 -44t-122.5 -46z" />
<glyph unicode="I" horiz-adv-x="393" d="M47 1450q14 6 46 16.5t68 21.5t69.5 21.5t54.5 16.5l-2 -24q-2 -25 -4 -70v-92q0 -93 -1.5 -231t-2.5 -300t-1 -302v-235.5v-101.5q4 -33 12.5 -55.5t12.5 -28.5l-31 -12q-30 -13 -71 -29t-82 -30.5t-60 -18.5l7 36q6 36 6 79q0 4 1 80.5t3 193.5t2 259v279.5t-1 254 t-5 182.5q-2 33 -10.5 57.5t-10.5 32.5z" />
<glyph unicode="J" horiz-adv-x="655" d="M39 0l41 50q41 50 92 127t96 171t51 180q2 18 3.5 91t1.5 172.5v208v199.5v147.5t0 50.5l-12 23q-11 22 -29 42q39 8 102.5 24.5t140.5 39.5l1 -68q1 -69 1 -174.5v-230.5v-235.5t-3 -191.5t-7 -98q-14 -53 -58 -144t-108.5 -177t-144.5 -149q-75 -58 -157 -58h-11z" />
<glyph unicode="K" horiz-adv-x="1187" d="M37 8q14 18 21.5 133t9.5 276q1 59 1 120q-1 108 -3 224q-4 183 -8.5 339.5t-10.5 261.5t-10 111q29 6 64.5 16t68.5 19.5t58.5 15.5t33.5 8l-4 -369l41 -1h7q37 0 67 9q33 10 88 41t105 76q50 44 83 102q24 42 24 89q0 17 -3 34h268q-23 -84 -65 -137t-82.5 -89 t-71.5 -60.5t-31 -48.5l38 -58q38 -57 91 -152.5t111.5 -219t99.5 -258.5q42 -134 54 -267q3 -34 3 -66q0 -96 -28 -180q-10 16 -41 103.5t-76 209.5t-103.5 259t-124 253t-137 192.5t-141.5 76.5q-18 0 -49 -10t-59.5 -27.5t-48 -42t-19.5 -53.5q0 -6 -2 -86t-3 -206v-83 q0 -83 1 -163q2 -120 9 -211t24 -97q-33 -14 -109 -39.5t-141 -44.5z" />
<glyph unicode="L" d="M20 4q16 51 25.5 120t13.5 113t4 50q3 340 3 553v52q0 176 -4 284q-4 124 -10.5 177.5t-14.5 71.5q23 8 55.5 18.5t66.5 21t63.5 18.5t47.5 10q-4 -20 -6 -131t-3 -265.5t-1 -330.5v-324.5t1 -247.5l1 -98q4 0 54 -1q52 -1 132 -2q40 0 80 -0.5t79 0.5q79 1 141.5 3 t74.5 8q14 6 15.5 18.5t1.5 29.5q0 37 -27 82t-61 114h120q20 -27 44 -62.5t44.5 -70.5t35 -66.5t14.5 -52.5q0 -53 -54.5 -72.5t-107.5 -19.5h-828z" />
<glyph unicode="M" horiz-adv-x="1720" d="M16 1532h535q88 0 127 -20.5t72 -20.5q32 1 100 29q63 27 160 26h14q143 -4 250.5 -54t180.5 -133t110 -194.5t37 -238.5q0 -150 -53.5 -302.5t-126 -280.5t-147.5 -214t-118 -100q6 33 41 104.5t76 176t73.5 240.5t32.5 298q0 102 -28.5 211.5t-85 202t-139.5 152 t-191 59.5q-45 0 -77 -13.5t-25 -42.5q2 -12 25.5 -43t50 -91t49 -151.5t22.5 -224.5q0 -190 -49 -348t-110.5 -273.5t-120 -182t-76.5 -74.5q2 23 23.5 91t46 167.5t45 221.5t20.5 251q0 111 -20.5 237.5t-68.5 233t-125 177.5t-188 71q-39 0 -70.5 -23.5t-31.5 -58.5 v-1243l9 -36t38 -52q-41 -16 -116.5 -40t-149.5 -51l29 148l-5 1274q0 20 -9 58t-36 77z" />
<glyph unicode="N" horiz-adv-x="1384" d="M29 1524l729 -4q133 0 230 -49.5t161.5 -131.5t95.5 -189.5t31 -225.5q0 -129 -46 -283t-114.5 -288t-148.5 -228t-150 -105q43 104 86 203t76 199t53.5 205.5t20.5 222.5q0 229 -64.5 353t-157 181.5t-194.5 66.5t-176 9q-72 0 -114 -2t-62.5 -15t-25.5 -44t-5 -88 q0 -49 1 -150.5t1 -224.5t2 -252t2 -235.5t1 -174.5l1 -69q4 -47 21.5 -75t23.5 -32q-18 -12 -53 -26.5t-76 -28.5t-80 -25.5t-65 -17.5q4 6 10 45t10 96v104.5v223.5t1 282.5t2 283.5t1 225.5t-2 107.5q-2 66 -11 107t-15 49z" />
<glyph unicode="O" horiz-adv-x="1605" d="M8 1073q0 119 38 206t102.5 143.5t149.5 83t181 26.5h516q266 0 385 -130t119 -343q0 -197 -65.5 -387.5t-170 -341t-236.5 -242.5t-267 -92q-141 0 -275.5 97t-241 251t-171 346.5t-64.5 382.5zM242 999q0 -279 69.5 -455.5t159.5 -277t175 -136.5q76 -32 109 -32h7 q84 8 152.5 64.5t123 140.5t94 186.5t65.5 202t39 185.5t13 139q0 111 -24.5 193.5t-83 138t-156 83t-240.5 27.5q-90 0 -180 -11t-161.5 -57.5t-116.5 -137.5t-45 -253z" />
<glyph unicode="P" horiz-adv-x="1146" d="M8 1513h850q94 0 138 -50t44 -120q0 -94 -58 -170.5t-145 -140t-189.5 -114t-189.5 -89t-145.5 -65.5t-58.5 -45q0 -5 -1 -61q0 -28 -0.5 -64.5t0.5 -81.5q1 -90 5 -176t14.5 -152.5t26.5 -74.5q-20 -23 -96 -45.5t-154 -55.5q8 20 12 129v90t1 226.5t1 297v302t-1 242 t-3 114.5q-2 23 -16.5 53.5t-34.5 50.5zM248 864q172 57 286.5 127t183 132.5t98.5 105.5t30 45v8q0 42 -20 88q-22 51 -66 78h-512v-584z" />
<glyph unicode="Q" horiz-adv-x="1638" d="M31 1083q0 141 46 231.5t124 140.5t176 69.5t203 19.5h342q78 0 182 -13t197.5 -61.5t159 -142.5t65.5 -258q0 -70 -19.5 -164t-52.5 -194.5t-74 -196.5t-84 -170q-18 -29 -54 -66.5t-64.5 -70.5t-40 -55.5t23.5 -22.5q61 0 95 13.5t57.5 27.5t46 27.5t63.5 13.5 q35 0 77 -38t42 -79q0 -45 -28.5 -83t-75.5 -38q-20 0 -31.5 17.5t-21 40t-19.5 40t-33 17.5t-40 -11t-36.5 -23.5t-45 -24t-68.5 -11.5q-25 0 -42.5 9.5t-29.5 19.5t-23.5 19.5t-23.5 9.5q-4 0 -20.5 -11.5t-47 -25.5t-75.5 -25.5t-109 -11.5q-139 0 -272 99.5t-237.5 257 t-168 349t-63.5 375.5zM258 1069q0 -283 64.5 -471t150.5 -300t172 -158t127 -46q86 0 157.5 55.5t129 144.5t99.5 197.5t69.5 214t42 197.5t14.5 146q0 96 -30.5 171.5t-81 128t-116 80t-134.5 27.5h-297q-100 0 -171 -32.5t-114 -87t-62.5 -124t-19.5 -143.5z" />
<glyph unicode="R" horiz-adv-x="1212" d="M20 1513h242t145.5 1.5t86 1.5t62.5 1t78 1h132q57 0 109.5 -4.5t90.5 -21.5t60.5 -54t22.5 -101q0 -76 -42 -137t-92.5 -109.5t-92.5 -83t-42 -57.5q0 -16 46 -85.5t105.5 -183.5t115 -267.5t75.5 -337.5l-4 -30t-24 -44h-3q-32 0 -71 77q-41 81 -99.5 210t-138.5 286.5 t-190 305.5q-4 5 -16 5q-16 0 -48 -10q-54 -16 -117 -45.5t-113 -66.5t-50 -66q0 -6 -1 -52v-50.5v-59.5q1 -64 2 -140.5t6 -142t14.5 -112.5t23.5 -53q-35 -23 -105.5 -44t-134.5 -42l1 30q1 29 3 81l-4 1288q-4 43 -14.5 76.5t-18.5 35.5zM240 1323q2 -35 2 -74 q0 -133 2 -216t14 -165q53 8 150.5 48t192.5 100.5t167 136.5t72 154q0 47 -15.5 76.5t-36 46t-40 22.5t-27.5 6h-414q-33 -6 -47 -26q-14 -18 -18 -46q-3 -18 -3 -40q0 -10 1 -23z" />
<glyph unicode="S" horiz-adv-x="1081" d="M20 1386q0 51 32 81t85 45.5t123 19.5t146 4h444q47 -2 94 -26q40 -21 40 -53q0 -5 -1 -11q-4 -16 -28.5 -50t-58.5 -69t-68.5 -63.5t-55.5 -34.5q-17 -5 -34 -5q-20 0 -41 6l-40 11q31 18 65 52t57.5 69t29.5 63.5t-14 34.5t-95 7h-51q-52 0 -106 -1q-82 -2 -147 -4 l-64 -2q-53 0 -63.5 -28.5t-10.5 -59.5q0 -39 36 -82t91 -92t117.5 -102.5t118 -111.5t91.5 -120.5t36 -128.5q0 -49 -34 -124.5t-88.5 -159.5t-125 -168t-143 -150.5t-141.5 -105.5q-63 -35 -112 -35h-10q27 82 90.5 147.5t129 139t115.5 167t50 230.5q0 106 -71.5 200.5 t-157.5 179.5t-158 165.5t-72 164.5z" />
<glyph unicode="T" horiz-adv-x="1392" d="M-2 1460q0 39 26.5 49.5t47.5 10.5h1153q19 0 47 -28q27 -26 26 -44q0 -14 -28 -51q-26 -35 -62.5 -73t-70 -69.5t-50.5 -37.5q-23 -10 -51 -10q-10 0 -20 1l-41 4q74 90 110.5 122t36.5 52q0 27 -46 40.5t-102 16.5q-42 2 -81 2h-25q-50 -1 -59 -1h-36.5t-37.5 4 l-2 -100q-2 -101 -4 -252.5t-3 -329.5v-116q0 -114 1 -216q2 -154 8 -259t21 -114q-133 -41 -256 -57q10 12 18 38t14.5 52.5t9.5 49t3 30.5l-4 1272l-59 3q-60 3 -131.5 3t-131 -4t-59.5 -18q0 -29 8 -48.5t23.5 -41t39 -47t52.5 -62.5l-93 8l-30 23q-31 22 -67 55 t-65.5 71.5t-29.5 71.5z" />
<glyph unicode="U" horiz-adv-x="1384" d="M8 582q0 170 54.5 331.5t126 289.5t145.5 210t112 90q-45 -119 -83.5 -216t-68.5 -190t-49.5 -191.5t-21.5 -219.5v-13q0 -119 33 -223q35 -110 95.5 -192t138.5 -128q75 -44 154 -44h7l320 8q23 16 34 57.5t11 90.5q0 35 1 131t2 222q0 63 0.5 129t-0.5 136 q-1 139 -6 260t-13.5 206t-24.5 101q8 6 40 16.5t69.5 22t72.5 20.5t51 13v-1274q0 -25 7.5 -56.5t17.5 -61t20.5 -54t14.5 -37.5h-699q-258 0 -409.5 142.5t-151.5 423.5z" />
<glyph unicode="V" horiz-adv-x="1179" d="M27 -4q10 12 22 47t19 88q2 10 2 97v214t-1 272.5t-1 268.5t-1 205l-1 82q-4 57 -13.5 96t-13.5 47q27 16 62.5 29.5t72.5 28t69.5 26.5t53.5 25q-2 -10 -10 -119t-16.5 -264.5t-14.5 -333.5q-6 -179 -7 -331v-37q0 -129 6 -217q7 -102 26 -103h7q46 0 106 45 q64 49 130 130t130.5 182t113.5 202q49 125 81 256t54.5 245.5t38.5 201.5t35 124q35 -39 65 -126t31 -259q0 -199 -62.5 -385t-176 -338.5t-271 -258t-348.5 -140.5q-6 0 -43 -2t-84 -2t-61 4z" />
<glyph unicode="W" horiz-adv-x="1728" d="M18 623q0 125 41 275.5t103.5 281.5t138.5 223t145 100q-12 -31 -49 -114.5t-74.5 -195.5t-67.5 -239t-30 -243q0 -113 33 -221.5t92.5 -193.5t140 -137.5t179.5 -52.5q35 0 76.5 12.5t41.5 47.5q0 14 -32.5 51t-69.5 99q-38 63 -64 150q-17 57 -17 126q0 36 5 76 q4 37 15.5 107.5t30 157.5t47 179t67.5 173t91 139.5t118 78.5q-12 -88 -31.5 -169t-38 -172t-33 -199.5t-14.5 -251.5q0 -100 22.5 -209t72 -198t125 -147.5t182.5 -58.5q39 0 51 6.5t51 38.5q-2 135 -2 300v320t1 290t1 209.5v80.5q-10 97 -33 105q8 10 43 20.5t77 20.5 t81 19.5t53 15.5q-2 -4 -10 -43t-10 -105l-15 -1212q4 -53 18.5 -86t24.5 -39l-501 -4h-21q-45 0 -75 7q-37 9 -62 20.5t-40 20.5t-34 9q-12 0 -30.5 -11t-52.5 -25.5t-85 -26t-129 -11.5q-150 0 -253 50.5t-168.5 133.5t-95.5 192.5t-30 228.5z" />
<glyph unicode="X" horiz-adv-x="1540" d="M14 197q0 45 39 116.5t97.5 151.5t127 162t127 148.5t97.5 110.5t39 48q0 29 -67.5 82t-149.5 123.5t-150 152.5t-68 166q0 18 40 25.5t87.5 7.5t85 -6t35.5 -17q-4 -17 -4 -35q0 -21 6 -45q10 -42 45 -92.5t101.5 -108t171.5 -120.5l53 48t116.5 107.5t116 111.5 t52.5 59q-2 18 -18.5 24t-43 7t-62.5 1t-75 9q-8 25 10.5 35t50.5 14q22 3 46 3q12 0 25 -1q38 -2 67 -2q66 0 112.5 -1t67.5 -30q6 -9 6 -20q0 -16 -14 -40q-24 -38 -70.5 -85t-105 -97.5t-109.5 -95.5t-87 -81t-36 -54q0 -20 45 -69.5t114 -116t150.5 -145.5t154.5 -160.5 t125 -161.5t62 -146q5 -26 5 -62v-12q0 -28 -2 -46q-2 -22 -3 -27h-329q8 55 14 80.5t6 70.5q0 80 -32.5 159t-83 152.5t-109.5 137t-112.5 112t-91.5 75t-46 26.5q-10 0 -46 -37t-84 -95.5t-101.5 -133t-97.5 -150.5t-72.5 -145.5t-28.5 -120.5q0 -41 19.5 -72t41.5 -76 h-223q-35 45 -36 100.5t-1 80.5z" />
<glyph unicode="Y" horiz-adv-x="1294" d="M8 1384q0 29 18.5 55.5t39.5 47.5h221q-20 -29 -39 -61.5t-19 -71.5q0 -25 50.5 -99.5t119 -153.5t137 -141.5t105.5 -62.5q4 2 43 40t102.5 100.5t123 127t102.5 120.5t43 83q0 29 -19.5 42t-48.5 17.5t-62.5 2t-62.5 -2.5q4 27 24.5 40.5t46 18.5t55.5 5h52q23 1 43 1 q45 0 78 -6q42 -8 42 -59q0 -7 -1 -14q-4 -37 -53 -109.5t-122 -167t-156 -205t-153.5 -225t-117.5 -224t-47 -203.5q0 -59 12.5 -92t34 -58t47 -49.5t53.5 -67.5h-340q-59 41 -80.5 80t-21.5 96q0 102 42 188.5t91 157t91 125t42 91.5q0 25 -37.5 62.5t-95 84.5t-125 103.5 t-125 118t-95.5 128.5t-38 137z" />
<glyph unicode="Z" horiz-adv-x="1236" d="M-8 195q0 92 59.5 207.5t147.5 238.5t192.5 245t192.5 224t147.5 177t59.5 106q0 18 -35 27.5t-83 13.5t-98.5 4h-78.5q-61 0 -128 -2t-130.5 -10.5t-118.5 -21.5t-92 -36q37 39 67 84l29 45h801q27 -25 28.5 -48.5t-4.5 -35.5t-8 -14q-10 -49 -58 -121t-116 -159 t-143.5 -186t-140 -203.5t-106.5 -210t-42 -208.5q0 -66 18.5 -103.5t45 -58t58 -25.5t56.5 -5l356 4q2 0 39 3t83 9t91 15.5t64 21.5q-14 -29 -39 -74t-41 -73h-932q-25 0 -49.5 4t-45 21.5t-33.5 51t-13 93.5z" />
<glyph unicode="a" horiz-adv-x="1015" d="M23 268q0 88 49 161t123.5 135.5t160.5 114.5t161 94t124 78t49 64q0 27 -22.5 41.5t-58.5 20.5t-81 7t-90 1q-33 0 -68.5 -1t-66.5 -9t-51.5 -24.5t-20.5 -49.5q0 -12 11.5 -31.5t26 -39t27.5 -35t17 -21.5h-112q-39 51 -79 97t-40 85l4 16q4 17 18.5 35.5t41 34 t71.5 15.5h414q119 0 176 -60.5t79 -132.5q19 -63 18 -117v-15l-3 -60q0 -136 -2 -234q-1 -65 -1 -118v-50q1 -70 9 -113.5t27 -72.5q-4 -2 -37 -20t-89 -36q-51 -17 -94 -16h-9q-20 27 -55.5 26t-80.5 -12.5t-97 -25.5t-107 -14q-53 0 -112.5 15t-111 49t-85 87t-33.5 131z M225 317q0 -61 31 -105t72 -72.5t81 -42t58 -13.5q97 0 165 49q66 48 66 161v7l-4 453q-68 -12 -149.5 -68.5t-152 -127.5t-119 -138.5t-48.5 -102.5z" />
<glyph unicode="b" horiz-adv-x="1040" d="M8 37q4 8 29.5 40t30.5 87q0 10 -1 95t-3.5 208t-3.5 263t-3 260t-3 200l-1 80q-6 16 -7 30.5t-2 31t-5.5 35.5t-18.5 46l68 25q68 24 158 49v-377q0 -43 52 -51t131 -8t170 -4.5t170 -40t132 -115.5t53 -232q0 -63 -37.5 -175.5t-126 -221t-232.5 -189.5t-357 -81 q-12 0 -48 1t-72 6q-35 5 -59 13q-16 6 -17 16q0 4 3 9zM244 86q13 -9 33 -9q31 0 81 23q80 37 164 117t147.5 190.5t63.5 235.5q0 68 -22.5 137.5t-79 122.5t-150.5 79q-48 13 -109 13q-58 0 -128 -12v-897z" />
<glyph unicode="c" horiz-adv-x="991" d="M8 852q0 82 39 124t99.5 60.5t133 20.5t140.5 2q160 0 257 -1t149.5 -8.5t67.5 -22.5q13 -13 13 -36v-6q-6 -59 -54 -97t-108 -93h-90q16 37 35 58t34 37.5t25.5 30t10.5 35.5q0 31 -95.5 35t-258.5 4q-53 0 -82 -20.5t-44.5 -49t-18.5 -61.5t-3 -55q0 -117 37 -213 t93 -177t125 -145.5t130.5 -117t107.5 -95.5t60 -77q-100 8 -237.5 79.5t-263.5 188.5t-214 270.5t-88 329.5z" />
<glyph unicode="d" horiz-adv-x="1056" d="M37 705q0 76 22.5 143t64.5 117.5t101.5 79t134.5 28.5l64 3q63 3 136 6q44 2 81 2q25 0 46 -1q54 -2 36 -10l5 13q5 12 10 56t5 124q-1 53 3 93q0 3 1 7q0 37 -34 76q35 20 106.5 43.5t130.5 46.5v-1507q-66 -15 -103 -15h-5l-39 2q-154 0 -292 53.5t-243.5 147.5 t-168 220t-62.5 272zM258 705q0 -143 56.5 -254t127 -187t135 -117t78.5 -43q12 -3 22 -3q17 1 29 9q18 14 26.5 34t10.5 37.5t2 19.5v710q-16 39 -18 59q-1 20 -13 28q-10 8 -36 7h-6q-30 -1 -105 -1q-57 0 -112.5 -8.5t-99.5 -39t-70.5 -90t-26.5 -161.5z" />
<glyph unicode="e" horiz-adv-x="1015" d="M-2 872v13q0 67 20 104q22 41 59.5 59.5t89.5 20.5t112 2q147 0 266 2h48q97 0 202 -6q18 0 39.5 -13.5t38 -34t27.5 -44t11 -43.5q0 -100 -73.5 -192.5t-161.5 -168t-162 -131t-74 -84.5q0 -18 50.5 -67t113 -106.5t117.5 -108.5t65 -72q-49 2 -124.5 35t-162.5 90 t-175 137t-160 176.5t-118 205.5t-48 226zM215 858q0 -70 20.5 -139.5t47 -125.5t53 -93t39.5 -41q5 -1 12 -1q33 0 81 36q58 43 114.5 109.5t97.5 141t41 127.5q0 49 -15.5 77t-46 40t-79 14.5t-111.5 2.5q-41 0 -86 -1t-82 -13.5t-61.5 -43t-24.5 -90.5z" />
<glyph unicode="f" horiz-adv-x="802" d="M6 973q0 12 11.5 23.5t25.5 21.5t27.5 19.5t13.5 21.5q2 147 18.5 238.5t55.5 140.5t102 64q57 14 138 14h22q23 0 72 1h13l85 -5q49 -7 87 -22t38 -48q0 -10 -2 -18.5t-10.5 -24t-26 -43t-49.5 -76.5h-88q18 35 38.5 72t20.5 61q0 45 -40 45h-79q-70 0 -110.5 -17.5 t-62 -50t-28 -78.5t-6.5 -106q0 -59 2 -90t13 -43q8 -10 25.5 -12t47 -2h73.5t106 -6q-16 -25 -31.5 -47.5t-32.5 -32.5q-25 -12 -55.5 -12t-58 2t-49 3t-29.5 -8q-8 -8 -9.5 -24t-1.5 -51v-811q-37 -27 -83 -42.5t-130 -45.5q2 29 10.5 63.5t10.5 69.5l1 96t2 229t1 273.5 t-2 230.5q0 8 -12.5 10t-26.5 4.5t-25.5 4.5t-11.5 8z" />
<glyph unicode="g" horiz-adv-x="1089" d="M23 846q0 125 48 166t113 41h785q-8 -35 -14.5 -67t-10.5 -60v-50v-135t-3 -193.5t-9 -225.5q-6 -94 -48 -202t-117 -203t-177.5 -165.5t-229.5 -91.5q-35 -5 -80 -5h-15q-54 1 -88 3t-38 2l17 31q70 27 146.5 68.5t144 94t122 111t82.5 119.5q0 23 -46 59.5t-116.5 87 t-151.5 115t-151.5 141t-116.5 167t-46 192.5zM260 858q2 -92 49 -196.5t116 -194.5t147.5 -152.5t144.5 -70.5q8 25 11 108.5t5 187t2 206t-1 165t-1 68.5q-18 -2 -46 -2t-56.5 2t-56.5 3t-48 1q-23 0 -68 2h-16q-36 0 -73 -7q-45 -9 -78 -36q-31 -25 -31 -78v-6z" />
<glyph unicode="h" d="M6 -25q10 8 23.5 49.5t19.5 106.5q8 -2 12.5 84t5.5 217q0 66 0.5 137t-0.5 147q-1 154 -3.5 286.5t-4.5 220.5l-2 88q-4 55 -21.5 98t-21.5 49q55 25 117 35t121 23v-451q51 -7 119 -7h17h26q67 0 137 -4q84 -5 167 -24.5t148.5 -67t105.5 -130t40 -216.5 q0 -102 -44 -211.5t-104.5 -199.5t-122 -148.5t-98.5 -58.5q37 84 72 152.5t61.5 136t43 139.5t16.5 162q0 121 -36 197.5t-98.5 120.5t-149.5 61.5t-190 17.5h-110v-772q2 -53 16.5 -88t24.5 -41q-6 -10 -42 -21.5t-81 -25.5t-91 -29.5t-73 -32.5z" />
<glyph unicode="i" horiz-adv-x="385" d="M4 -10q8 27 19.5 43t20.5 31.5t15.5 33t6.5 47.5v854q12 25 32.5 36.5t46 17.5t55 13t58.5 24v-1033q-27 -6 -63.5 -17t-73.5 -22.5t-69 -19.5t-48 -8zM23 1178q0 37 54 69.5t122 32.5q33 0 46 -13.5t13 -45.5q0 -20 -16.5 -37t-41 -28t-52 -17t-52.5 -6q-18 0 -45.5 8 t-27.5 37z" />
<glyph unicode="j" horiz-adv-x="401" d="M-125 -332q41 61 79 113.5t66.5 107t45 116t16.5 138.5q0 6 2 84t3 202q1 62 1 123.5t-1 121.5q-1 121 -6 214t-15 109q2 6 7 12.5t26.5 13.5t66.5 19.5t125 30.5l-12 -934q0 -20 -23 -96t-72 -158t-124.5 -147.5t-184.5 -69.5zM37 1180q0 57 50 71.5t99 16.5q2 0 18 1h4 q15 0 32 -7q20 -10 20 -34q0 -34 -38 -70q-40 -38 -111 -38q-74 1 -74 60z" />
<glyph unicode="k" horiz-adv-x="1048" d="M10 10q2 41 24 84q20 39 19 85v9q0 6 1 91.5t3 229.5t3 301v155v153q-1 150 -5 246q-2 45 -8 78t-10 43q35 18 86 34.5t131 34.5v-772q24 -4 48 -4q56 0 102 24q66 34 108 86t56 110q6 25 6 44q0 26 -11 45q45 0 124 1.5t130 5.5q-8 -90 -36.5 -132t-60.5 -65t-56.5 -38 t-24.5 -48q0 -14 49 -76.5t106.5 -161t106.5 -227.5t49 -276l-4 -123q-27 16 -64.5 78.5t-81.5 147.5t-92.5 179t-96.5 173t-94 131.5t-87 52.5q-43 0 -78 -18.5t-59.5 -46.5t-38.5 -59.5t-14 -56.5q-2 -156 -4 -270q0 -9 -1 -18q0 -100 27 -138q-16 -8 -57 -23.5t-84 -30.5 t-77 -26z" />
<glyph unicode="l" horiz-adv-x="393" d="M23 25q14 33 25 68.5t18.5 65t11.5 50t4 22.5v61v160.5t1 221.5q0 62 0.5 123t-0.5 121q-1 122 -2 233t-3 182q-2 59 -5 100.5t-7 53.5q39 16 97 36.5t124 37.5l-13 -51q-14 -52 -16 -136q-2 -88 -2 -204.5v-240.5t1 -246t1 -220t1 -165t1 -81q0 -20 8 -65.5t25 -59.5 q-8 -8 -46 -19.5t-83 -21.5t-86 -17t-55 -9z" />
<glyph unicode="m" horiz-adv-x="1425" d="M39 -12q4 14 13 49t11 86q-2 12 -3 95v90v100q1 108 2 219.5t2.5 181.5t1.5 76q-4 41 -12.5 74.5t-12.5 56.5q16 2 40.5 12t53.5 20.5t58.5 19.5t52.5 9q20 0 34.5 -17.5t26.5 -29.5q63 37 96 40t68 3q53 0 90 -11t61.5 -25.5t40 -26t29.5 -11.5q4 2 36 18.5t85 36 t100 19.5q86 0 157 -36t121 -91t78.5 -123.5t28.5 -134.5q0 -74 -30.5 -181.5t-85 -213t-127 -191.5t-158.5 -116q8 63 43 122.5t72 129t65.5 155.5t28.5 207q0 55 -17.5 121.5t-51 125t-83 98.5t-114.5 40q-35 0 -62.5 -25.5t-27.5 -62.5q0 -6 9 -22.5t20.5 -51.5t20.5 -89 t9 -134q0 -39 -15.5 -130t-51 -187.5t-92 -176t-136.5 -98.5q8 41 25.5 89t35 112.5t30.5 148.5t13 197q0 59 -12 136t-40.5 145.5t-78 115.5t-120.5 47q-41 0 -66 -26.5t-25 -61.5q0 -6 -2 -82.5t-4 -200.5q-1 -83 -1 -163v-79q1 -118 8.5 -207t23.5 -97 q-23 -8 -53.5 -19.5t-66.5 -24.5t-72.5 -26.5t-69.5 -23.5z" />
<glyph unicode="n" horiz-adv-x="1130" d="M23 1073h311q14 -4 70.5 -5t134 -9t163.5 -29.5t159 -65.5t121 -118t48 -187q0 -43 -26.5 -140t-75.5 -203.5t-117 -196.5t-149 -121q6 37 34.5 98.5t59 140t56.5 175t26 202.5q0 96 -39 176t-110 134q-71 56 -172 80q-61 15 -131 14q-46 0 -95 -6q-14 -2 -23.5 -39 t-13.5 -97.5t-6 -136t-2 -153.5q0 -55 -3 -109.5t-4 -114.5v-24q0 -48 3 -104q4 -70 18 -156q-37 -29 -99.5 -47.5t-131.5 -40.5q4 25 9 62.5t7 76.5l4 813q-4 47 -12 81t-14 50z" />
<glyph unicode="o" d="M8 688q0 168 76 262t190 94h459q16 0 64.5 -11t100.5 -46t92 -103.5t40 -181.5q0 -125 -44 -248.5t-116.5 -223t-166 -161t-191.5 -61.5q-74 0 -162 48t-163.5 137.5t-127 214t-51.5 280.5zM195 621q12 -172 57 -275.5t96 -159t95 -73t53 -17.5q76 0 138 72t106 168 t67.5 193.5t23.5 150.5q0 80 -11 136t-45 92t-94.5 53.5t-158.5 17.5q-82 0 -146.5 -15.5t-107.5 -55.5q-42 -40 -62 -110q-13 -48 -14 -113q0 -30 3 -64z" />
<glyph unicode="p" horiz-adv-x="1081" d="M16 -365q8 25 24.5 78.5t22.5 104.5v60q0 61 -1 136.5t-1 144v85.5q2 94 3.5 216t1.5 229.5v180.5v74q-10 100 -33 127h450q109 0 199 -4t154.5 -32.5t100.5 -92t36 -182.5q0 -141 -48 -243.5t-123 -176.5t-162 -124t-165 -87t-133 -66.5t-68 -60.5l-2 -38t-2 -86 t4.5 -92t16.5 -56q-6 -2 -49 -18.5t-109.5 -40t-116.5 -36.5zM281 168q100 8 188 69.5t153.5 144.5t103.5 173t38 160q0 72 -25.5 135t-83 107t-148.5 61q-42 9 -94 9q-58 0 -128 -11z" />
<glyph unicode="q" horiz-adv-x="1032" d="M10 741q0 53 17.5 108.5t48 100.5t74 74t96.5 29h692q-20 -23 -28.5 -115t-11.5 -221t-3 -281.5t-2 -294.5q-1 -80 -1 -147q0 -102 2 -176q3 -125 28 -152q-51 -4 -117 -26.5t-125 -32.5q6 125 6 215v43q-2 102 -22 135q-59 47 -169 102.5t-217.5 139.5t-187.5 203.5 t-80 295.5zM217 727q0 -129 40 -227.5t99.5 -169t126 -114.5t117.5 -64q15 -5 35 -5q10 0 21 1l32 4v831q-31 -4 -63.5 -1t-98.5 5h-20q-135 0 -210 -50q-79 -54 -79 -210z" />
<glyph unicode="r" horiz-adv-x="819" d="M14 1008q-1 1 -1 3q1 11 53 27q62 20 155 52q8 -25 16.5 -49.5t34.5 -24.5q12 0 29.5 11t48.5 25.5t76 26t113 11.5q84 0 137 -26t53 -93q0 -25 -14.5 -49.5t-36 -43t-46 -26.5t-42.5 0q-18 6 -20.5 16.5t1.5 21.5t10.5 23.5t6.5 24.5q0 66 -37 72t-86 6t-89 -23.5 t-70 -56.5t-46 -69t-16 -58q0 -6 -2 -74.5t-5.5 -177t-3.5 -212t5.5 -181.5t17.5 -82q-6 -6 -32.5 -18.5t-62.5 -25.5t-74 -24.5t-67 -15.5q4 14 16.5 54t14.5 102q4 76 6 170t2 192t-2 189.5t-8 160.5q-4 51 -14.5 90.5t-20.5 51.5z" />
<glyph unicode="s" horiz-adv-x="802" d="M23 -106q25 39 74.5 101t99 134t86 145.5t36.5 139.5q0 63 -46 128.5t-102 131t-102 131.5t-46 127q0 59 28.5 90t75.5 31h549q29 -8 37 -24.5t8 -37.5q0 -8 -10.5 -31.5t-34.5 -47.5q-24 -22 -60 -40q-30 -14 -71 -15q-9 0 -19 1v14q23 20 35 33t12 41q0 23 -15 32 t-40.5 10t-61.5 0h-15q-30 0 -62 3q-31 3 -60 3q-33 0 -63 -4q-55 -7 -55 -58q0 -43 51 -86t111.5 -97.5t111.5 -128t51 -178.5q0 -70 -54 -162t-132 -176t-165 -144t-152 -66z" />
<glyph unicode="t" horiz-adv-x="688" d="M-10 1008q41 14 90 63t94 102.5t83 95.5q36 40 56 40h2q4 -25 4 -67t1.5 -82t4.5 -69.5t11 -31.5q16 -2 49 -4t73 -2t83 -2t77 -4q-18 -25 -31.5 -39.5t-30.5 -21.5t-44 -9t-74 -2q-59 0 -90 -5t-31 -30v-594q0 -74 34 -143.5t76 -130t80 -111.5t48 -88q-143 27 -230 112 t-134.5 181t-63.5 175t-16 93v541q-20 18 -59 19.5t-62 13.5z" />
<glyph unicode="u" d="M8 440q0 78 32 176.5t80 188.5t104.5 158.5t107.5 89.5q-6 -45 -29.5 -104.5t-50.5 -131.5t-47.5 -155.5t-20.5 -178.5q0 -117 42 -197.5t111 -131t156 -72t179 -21.5q29 0 42 1t20 4.5t15.5 11.5t24.5 20v92q0 91 -1 216.5t-3 257t-6 213.5q-6 33 -20.5 63.5t-22.5 34.5 q-4 10 17.5 19.5t58.5 21.5t85 27.5t101 37.5q-4 -6 -7 -40.5t-5 -90.5v-181t1 -216t2 -215.5t5 -177.5q6 -68 12 -97.5t29 -56.5q-4 0 -65.5 -1t-160 -1h-194.5t-173 1t-95 5q-47 10 -103.5 30.5t-105.5 68t-82 127t-33 204.5z" />
<glyph unicode="v" horiz-adv-x="1024" d="M20 35q4 27 22.5 43t20.5 41q5 156 5 289q0 84 -2 158q-5 192 -9 315q-8 45 -19.5 79t-17.5 48q47 25 114 41t149 49q-6 -6 -9.5 -79t-4.5 -177q0 -52 -0.5 -109t0.5 -117q1 -122 2 -224.5t2 -171.5l1 -68q24 -9 47 -9q45 0 87 32q66 50 125 144.5t109 214t85 232.5 t51 202q12 62 12 96q0 14 -2 23q37 -18 59.5 -52t36 -70.5t17.5 -69.5t4 -49q0 -166 -61.5 -315.5t-163.5 -264t-236.5 -181.5t-279.5 -67q-14 0 -59.5 1t-84.5 16z" />
<glyph unicode="w" horiz-adv-x="1343" d="M-8 420q0 72 20.5 167t64.5 190t112.5 178t166.5 128q8 4 25.5 4t9.5 -18q-23 -45 -57.5 -97t-67.5 -118t-56.5 -146.5t-23.5 -183.5q0 -66 14.5 -139.5t46.5 -136t82 -103.5t124 -41q31 0 52 27t21 53q0 45 -21.5 111.5t-23.5 183.5v20q-1 58 9 129q12 83 41.5 166 t81 155.5t130.5 117.5q8 4 17.5 3t17.5 3q-6 -41 -24.5 -109.5t-39 -145.5t-36.5 -154.5t-16 -139.5q0 -55 12 -128.5t43 -142.5t82 -118t127 -53h2q53 0 76 104q4 25 7 104q3 78 5 186q1 72 1 150v78q-1 120 -5 230q-2 20 -20 45l-17 25q18 4 50 13t68.5 19.5t72.5 20.5 t65 16q-2 -23 -7 -54.5t-7 -76.5q-6 -106 -9 -334q-1 -126 -1 -270q0 -115 1 -242q2 -25 12.5 -48t18.5 -44l-55 -2q-56 -2 -129.5 -3t-148.5 -1t-111 6q-29 4 -59.5 14.5t-57.5 20.5t-47.5 18.5t-30.5 8.5q-23 0 -78 -31t-143 -31l-61 10q-60 9 -132.5 48.5t-133 123.5 t-60.5 234z" />
<glyph unicode="x" horiz-adv-x="1163" d="M-2 98q0 76 61.5 156t135 150.5t135 126t61.5 83.5q0 35 -46 67t-102.5 71t-102.5 90t-46 129q0 43 17.5 56t42.5 32h133q0 -78 4 -116t23.5 -65.5t62.5 -60.5t121 -100q96 82 157.5 139t75.5 115q-43 8 -70.5 11t-62.5 3q26 49 64 63q34 13 58 13h6q26 -2 30 -4 q35 1 80 -11q43 -11 43 -57q0 -20 -14.5 -41.5t-46.5 -58.5t-87 -92.5t-137 -137.5q100 -98 189 -173.5t157 -140t106.5 -126t38.5 -135.5q0 -39 -9 -54.5t-36 -33.5h-206q1 14 1 28q-1 118 -47 206q-52 100 -117 166.5t-120 97.5l-55 32q-4 0 -47 -37.5t-92.5 -95 t-89.5 -125t-40 -125.5q0 -33 20.5 -69.5t20.5 -61.5h-221q-45 57 -47 72z" />
<glyph unicode="y" horiz-adv-x="1064" d="M20 958q0 45 17.5 70t42 35t49.5 12t39 2q27 0 62.5 -8t62.5 -4q-2 -43 -19.5 -68.5t-17.5 -66.5q0 -61 41 -127t91 -120t92 -90t44 -36l48 49q49 49 107 117t111.5 137.5t61.5 112.5q-33 6 -50.5 12t-34.5 10t-43 6.5t-75 2.5q29 53 56.5 55t99.5 2q96 0 136 -20.5 t40 -53.5q0 -20 -42 -74.5t-104.5 -134.5t-135 -179t-135 -208.5t-104.5 -225.5t-42 -226q0 -70 8 -108t22.5 -65.5t34 -57.5t41.5 -81q-4 0 -27.5 -4t-60.5 -5h-7q-32 0 -54 9q-84 33 -138.5 91.5t-54.5 175.5q0 78 33 159.5t71 154.5t70.5 127t32.5 75q0 16 -57.5 75.5 t-127 139.5t-127 168.5t-57.5 164.5z" />
<glyph unicode="z" horiz-adv-x="950" d="M8 131q0 82 45 167t114 168t150.5 162t152.5 146.5t122 121.5t59 87q-151 4 -283 6h-25q-121 0 -261 -18q16 27 40.5 57.5t61.5 30.5h664q1 -4 1 -9q0 -25 -32 -71q-39 -55 -103.5 -127t-141 -158t-143.5 -172t-112 -169t-45 -148q0 -43 26 -66.5t65.5 -35t86 -13.5 t89.5 -2q57 0 95 3t70.5 7t65.5 8.5t78 8.5q-12 -31 -25.5 -53.5t-34.5 -49.5h-677q-61 0 -82 42t-21 77z" />
<glyph unicode="&#xa5;" horiz-adv-x="1294" d="M8 1384q0 29 18.5 55.5t39.5 47.5h221q-20 -29 -39 -61.5t-19 -71.5q0 -25 50.5 -99.5t119 -153.5t137 -141.5t105.5 -62.5q4 2 43 40t102.5 100.5t123 127t102.5 120.5t43 83q0 29 -19.5 42t-48.5 17.5t-62.5 2t-62.5 -2.5q4 27 24.5 40.5t46 18.5t55.5 5h52 q74 4 121 -5t41 -73q-2 -35 -45 -99.5t-107.5 -149.5t-140 -184t-145.5 -204h190v-131h-272q-12 -23 -23.5 -42t-21.5 -40h317v-131h-372q-29 -82 -29 -153q0 -59 12.5 -92t34 -58t47 -49.5t53.5 -67.5h-340q-59 41 -80.5 80t-21.5 96q0 68 19.5 129.5t50.5 114.5h-168v131 h254q16 23 31.5 43.5t29.5 38.5h-315v131h354q-25 43 -107.5 107.5t-171 143.5t-158 170t-69.5 187z" />
<glyph unicode="&#xa9;" horiz-adv-x="1509" d="M-27 731q-2 160 57.5 301.5t163 247.5t244 169.5t299.5 66.5q160 2 301.5 -57.5t248 -163t170 -243.5t65.5 -300t-57.5 -301.5t-163 -248t-243.5 -169t-300 -64.5t-301.5 56.5t-248 162t-170 243.5t-65.5 300zM106 723q4 -131 56.5 -246t141.5 -198.5t206 -132t248 -44.5 t245.5 56.5t198.5 140.5t131 205t43 248t-56 245.5t-140 198.5t-205 132t-248 44t-245.5 -56t-198.5 -140.5t-132.5 -205t-44.5 -247.5zM350 1016q0 102 53.5 150t126.5 48h445q6 0 22.5 -4t31.5 -12t27.5 -17.5t12.5 -21.5q0 -41 -42 -78t-79 -86h-76q12 31 26.5 46.5 t28 27.5t21.5 24.5t8 34.5q0 25 -18 36.5t-39 11.5h-256q-59 0 -97 -54.5t-34 -142.5q6 -174 75.5 -294t156.5 -205t168 -145.5t110 -115.5q-86 14 -201.5 92t-220 190.5t-177.5 248t-73 266.5z" />
<glyph unicode="&#xad;" horiz-adv-x="663" d="M81 640q3 42 21.5 63.5t22.5 23.5q10 10 70.5 10t130 -3t127 -8t59.5 -7q4 0 28.5 -3t35 -25.5t-40.5 -74.5q-8 -6 -68.5 -20t-133.5 -26.5t-133.5 -18.5t-68.5 0q-53 47 -50 89z" />
<glyph unicode="&#xae;" horiz-adv-x="1509" d="M-27 731q-2 160 57.5 301.5t163 247.5t244 169.5t299.5 66.5q160 2 301.5 -57.5t248 -163t170 -243.5t65.5 -300t-57.5 -301.5t-163 -248t-243.5 -169t-300 -64.5t-301.5 56.5t-248 162t-170 243.5t-65.5 300zM106 723q4 -131 56.5 -246t141.5 -198.5t206 -132t248 -44.5 t245.5 56.5t198.5 140.5t131 205t43 248t-56 245.5t-140 198.5t-205 132t-248 44t-245.5 -56t-198.5 -140.5t-132.5 -205t-44.5 -247.5zM397 1223h208t95.5 1t62.5 1h111q76 0 128.5 -16.5t52.5 -98.5q0 -49 -27 -88t-58.5 -69.5t-58 -53t-26.5 -37.5q0 -10 29.5 -55 t66.5 -118t73 -171t48 -215l-2 -19q-2 -20 -15 -30q-20 -2 -46.5 50t-64.5 135t-88 184.5t-122 195.5q-6 6 -41 -4t-75 -29.5t-71.5 -43t-31.5 -42.5q0 -6 -1 -64t1 -129t8 -130.5t18 -65.5q-20 -14 -66 -28.5t-85 -28.5v20q0 19 2 54l-2 823q-4 29 -10.5 49.5t-12.5 22.5z M539 1055q0 -86 1 -139.5t11 -104.5q33 4 95.5 29.5t123.5 64.5t106.5 87t45.5 98q0 61 -33 79.5t-43 18.5h-264q-43 -8 -43 -46v-87z" />
<glyph unicode="&#xbf;" horiz-adv-x="1105" d="M78 215q0 57 40 129t98 153t128 166t128 166.5t98 155.5t40 131q0 63 -8 92t-31 76l76 -8q59 -25 92 -69t33 -120q0 -43 -35 -111.5t-87 -149.5t-112.5 -169t-112.5 -167.5t-87 -145t-35 -102.5q0 -51 53.5 -80t104.5 -29l356 8q74 0 74 58q0 35 -22.5 71.5t-51.5 91.5 h103q23 -16 44 -44.5t37.5 -59.5t26.5 -58.5t10 -43.5q0 -33 -13 -50.5t-34.5 -26.5t-48.5 -14.5t-51 -13.5h-696q-4 2 -30 13.5t-56.5 48.5t-30.5 102zM520 1440q0 4 9.5 31.5t45 59.5t107.5 32q20 0 38.5 -13.5t20.5 -33.5q4 -70 -37.5 -104t-78.5 -40t-43 -6 q-27 0 -44.5 34t-17.5 40z" />
<glyph unicode="&#xc0;" horiz-adv-x="1236" d="M-10 -12q16 12 26.5 64t16.5 125t7 157t1 160.5t-2 137t-2 87.5q-2 47 11 124t52 166t106.5 179t174 162.5t255 119t349.5 46.5h107v-1469q-37 -14 -98.5 -36.5t-119.5 -37.5q2 61 7 117q6 115 9 221.5t3 231.5q-14 8 -67.5 -1.5t-125 -28.5t-151.5 -45t-146.5 -49.5 t-110.5 -43t-44 -25.5v-68.5t2 -82.5t4 -78t6 -55q-2 0 -83 -25t-187 -53zM233 600q0 -27 1.5 -76t7.5 -86q51 20 159.5 55t219 70t191.5 62.5t77 33.5q6 258 10 406.5t2 225.5t-13 101.5t-36 32.5q-57 20 -161.5 -19.5t-207 -142t-177.5 -268.5t-73 -395zM449 1835h239 l135 -279h-143z" />
<glyph unicode="&#xc1;" horiz-adv-x="1236" d="M-10 -12q16 12 26.5 64t16.5 125t7 157t1 160.5t-2 137t-2 87.5q-2 47 11 124t52 166t106.5 179t174 162.5t255 119t349.5 46.5h107v-1469q-37 -14 -98.5 -36.5t-119.5 -37.5q2 61 7 117q6 115 9 221.5t3 231.5q-14 8 -67.5 -1.5t-125 -28.5t-151.5 -45t-146.5 -49.5 t-110.5 -43t-44 -25.5v-68.5t2 -82.5t4 -78t6 -55q-2 0 -83 -25t-187 -53zM233 600q0 -27 1.5 -76t7.5 -86q51 20 159.5 55t219 70t191.5 62.5t77 33.5q6 258 10 406.5t2 225.5t-13 101.5t-36 32.5q-57 20 -161.5 -19.5t-207 -142t-177.5 -268.5t-73 -395zM582 1556l133 279 h235l-221 -279h-147z" />
<glyph unicode="&#xc2;" horiz-adv-x="1236" d="M-10 -12q16 12 26.5 64t16.5 125t7 157t1 160.5t-2 137t-2 87.5q-2 47 11 124t52 166t106.5 179t174 162.5t255 119t349.5 46.5h107v-1469q-37 -14 -98.5 -36.5t-119.5 -37.5q2 61 7 117q6 115 9 221.5t3 231.5q-14 8 -67.5 -1.5t-125 -28.5t-151.5 -45t-146.5 -49.5 t-110.5 -43t-44 -25.5v-68.5t2 -82.5t4 -78t6 -55q-2 0 -83 -25t-187 -53zM233 600q0 -27 1.5 -76t7.5 -86q51 20 159.5 55t219 70t191.5 62.5t77 33.5q6 258 10 406.5t2 225.5t-13 101.5t-36 32.5q-57 20 -161.5 -19.5t-207 -142t-177.5 -268.5t-73 -395zM362 1556l216 279 h192l225 -279h-204l-109 170l-115 -170h-205z" />
<glyph unicode="&#xc3;" horiz-adv-x="1236" d="M-10 -12q16 12 26.5 64t16.5 125t7 157t1 160.5t-2 137t-2 87.5q-2 47 11 124t52 166t106.5 179t174 162.5t255 119t349.5 46.5h107v-1469q-37 -14 -98.5 -36.5t-119.5 -37.5q2 61 7 117q6 115 9 221.5t3 231.5q-14 8 -67.5 -1.5t-125 -28.5t-151.5 -45t-146.5 -49.5 t-110.5 -43t-44 -25.5v-68.5t2 -82.5t4 -78t6 -55q-2 0 -83 -25t-187 -53zM233 600q0 -27 1.5 -76t7.5 -86q51 20 159.5 55t219 70t191.5 62.5t77 33.5q6 258 10 406.5t2 225.5t-13 101.5t-36 32.5q-57 20 -161.5 -19.5t-207 -142t-177.5 -268.5t-73 -395zM348 1556 q0 98 58 166q57 61 147 62q57 0 168 -53q57 -31 94 -31q29 0 49 16q16 18 25 72h129q-2 -115 -57 -172q-57 -57 -140 -57q-63 0 -166 57q-66 35 -98 35q-31 0 -53 -25q-23 -23 -23 -70h-133z" />
<glyph unicode="&#xc4;" horiz-adv-x="1236" d="M-10 -12q16 12 26.5 64t16.5 125t7 157t1 160.5t-2 137t-2 87.5q-2 47 11 124t52 166t106.5 179t174 162.5t255 119t349.5 46.5h107v-1469q-37 -14 -98.5 -36.5t-119.5 -37.5q2 61 7 117q6 115 9 221.5t3 231.5q-14 8 -67.5 -1.5t-125 -28.5t-151.5 -45t-146.5 -49.5 t-110.5 -43t-44 -25.5v-68.5t2 -82.5t4 -78t6 -55q-2 0 -83 -25t-187 -53zM233 600q0 -27 1.5 -76t7.5 -86q51 20 159.5 55t219 70t191.5 62.5t77 33.5q6 258 10 406.5t2 225.5t-13 101.5t-36 32.5q-57 20 -161.5 -19.5t-207 -142t-177.5 -268.5t-73 -395zM379 1556v205h188 v-205h-188zM752 1556v205h188v-205h-188z" />
<glyph unicode="&#xc5;" horiz-adv-x="1236" d="M-10 -12q16 12 26.5 64t16.5 125t7 157t1 160.5t-2 137t-2 87.5q-2 47 11 124t52 166t106.5 179t174 162.5t255 119t349.5 46.5h107v-1469q-37 -14 -98.5 -36.5t-119.5 -37.5q2 61 7 117q6 115 9 221.5t3 231.5q-14 8 -67.5 -1.5t-125 -28.5t-151.5 -45t-146.5 -49.5 t-110.5 -43t-44 -25.5v-68.5t2 -82.5t4 -78t6 -55q-2 0 -83 -25t-187 -53zM233 600q0 -27 1.5 -76t7.5 -86q51 20 159.5 55t219 70t191.5 62.5t77 33.5q6 258 10 406.5t2 225.5t-13 101.5t-36 32.5q-57 20 -161.5 -19.5t-207 -142t-177.5 -268.5t-73 -395zM549 1733 q-4 76 48 130t128 58t131 -48t57 -128t-49 -130t-127 -56t-130 48t-58 126zM629 1735q2 -43 36.5 -72t77.5 -25t70 37t25 76t-36 71.5t-77 24.5t-70.5 -36.5t-25.5 -75.5z" />
<glyph unicode="&#xc6;" horiz-adv-x="1925" d="M-10 -12q16 12 26.5 64t16.5 125t7 157t1 160.5t-2 137t-2 87.5q-4 66 26.5 189.5t121.5 250.5t254 228t425 124q-4 4 -8 9.5t-8 11.5h942q45 0 61.5 -24.5t16.5 -65.5q0 -37 -45 -76t-121 -115h-119q41 49 87 90t46 89q0 29 -22.5 40t-56 15t-75.5 3t-81 -1 q-94 2 -162 1t-162 -1q-53 0 -65 -37v-254q2 -12 10 -25q31 -8 94.5 -8h137t146 -4t124.5 -22q-2 -2 -17.5 -14.5t-34 -28t-36 -26.5t-21.5 -9q-33 12 -94.5 17t-122.5 6t-111.5 0t-60.5 -3q-6 0 -14 -14v-338q16 -96 75.5 -211t196.5 -242q47 -43 99.5 -80.5t98.5 -69.5 t83.5 -60.5t56.5 -53.5q-49 -4 -124 23.5t-159 78t-169 120t-158 149.5v-334q-37 -14 -98.5 -36.5t-119.5 -37.5q2 61 7 117q6 115 9 221.5t3 231.5q-14 8 -67.5 -1.5t-125 -28.5t-151.5 -45t-146.5 -49.5t-110.5 -43t-44 -25.5v-68.5t2 -82.5t4 -78t6 -55q-2 0 -83 -25 t-187 -53zM233 600q0 -27 1.5 -76t7.5 -86q51 20 159.5 55t219 70t191.5 62.5t77 33.5q0 27 1 52.5t1 50.5v16v604q-10 33 -39 43q-57 20 -161.5 -19.5t-207 -142t-177.5 -268.5t-73 -395z" />
<glyph unicode="&#xc7;" horiz-adv-x="1253" d="M18 1217q0 158 83 233.5t196 75.5h696q10 0 35 -7.5t49.5 -18.5t44 -27.5t19.5 -34.5q0 -31 -19.5 -59.5t-47 -59.5t-61.5 -63.5t-61 -69.5h-121q20 47 43 71.5t43.5 43t34 38t13.5 54.5q0 39 -29 56t-62 17h-399q-92 0 -152.5 -86t-54.5 -223q8 -180 61.5 -322.5 t132.5 -255t172 -200.5t179 -160t154.5 -131t99.5 -117q-121 23 -281 121l-16 -53q82 -10 125 -50t47 -98q0 -76 -73.5 -131t-215.5 -59q-82 0 -145 12l12 117q31 -2 54.5 -2t39.5 -2q160 0 160 76q0 16 -9 30.5t-44 24.5q-31 10 -105 12l54 176h37q-125 88 -248 212 t-221.5 265.5t-159 294t-60.5 300.5z" />
<glyph unicode="&#xc8;" horiz-adv-x="1155" d="M8 1532h942q45 0 61.5 -24.5t16.5 -65.5q0 -37 -45 -76t-121 -115h-119q41 49 87.5 90t46.5 89q0 29 -23 40t-56.5 15t-75.5 3t-81 -1q-94 2 -161.5 1t-162.5 -1q-63 0 -68 -46t-5 -130q0 -45 3 -83t15 -57q31 -8 94.5 -8h137t146.5 -4t124 -22q-2 -2 -17.5 -14.5 t-34 -28t-36 -26.5t-21.5 -9q-33 12 -94 17t-122.5 6t-112 0t-60.5 -3q-12 -2 -16 -21.5t-5 -48t0 -59t-1 -53.5q-2 -51 2 -118.5t30.5 -147.5t85 -170t162.5 -187q47 -43 99.5 -80.5t98.5 -69.5t84 -60.5t56 -53.5q-53 -4 -134 27t-171 88t-180 135t-163 165t-118 178 t-45 175v664q0 23 -5 35t-38 55zM260 1892h240l135 -278h-143z" />
<glyph unicode="&#xc9;" horiz-adv-x="1155" d="M8 1532h942q45 0 61.5 -24.5t16.5 -65.5q0 -37 -45 -76t-121 -115h-119q41 49 87.5 90t46.5 89q0 29 -23 40t-56.5 15t-75.5 3t-81 -1q-94 2 -161.5 1t-162.5 -1q-63 0 -68 -46t-5 -130q0 -45 3 -83t15 -57q31 -8 94.5 -8h137t146.5 -4t124 -22q-2 -2 -17.5 -14.5 t-34 -28t-36 -26.5t-21.5 -9q-33 12 -94 17t-122.5 6t-112 0t-60.5 -3q-12 -2 -16 -21.5t-5 -48t0 -59t-1 -53.5q-2 -51 2 -118.5t30.5 -147.5t85 -170t162.5 -187q47 -43 99.5 -80.5t98.5 -69.5t84 -60.5t56 -53.5q-53 -4 -134 27t-171 88t-180 135t-163 165t-118 178 t-45 175v664q0 23 -5 35t-38 55zM434 1589l133 279h236l-221 -279h-148z" />
<glyph unicode="&#xca;" horiz-adv-x="1155" d="M8 1532h942q45 0 61.5 -24.5t16.5 -65.5q0 -37 -45 -76t-121 -115h-119q41 49 87.5 90t46.5 89q0 29 -23 40t-56.5 15t-75.5 3t-81 -1q-94 2 -161.5 1t-162.5 -1q-63 0 -68 -46t-5 -130q0 -45 3 -83t15 -57q31 -8 94.5 -8h137t146.5 -4t124 -22q-2 -2 -17.5 -14.5 t-34 -28t-36 -26.5t-21.5 -9q-33 12 -94 17t-122.5 6t-112 0t-60.5 -3q-12 -2 -16 -21.5t-5 -48t0 -59t-1 -53.5q-2 -51 2 -118.5t30.5 -147.5t85 -170t162.5 -187q47 -43 99.5 -80.5t98.5 -69.5t84 -60.5t56 -53.5q-53 -4 -134 27t-171 88t-180 135t-163 165t-118 178 t-45 175v664q0 23 -5 35t-38 55zM215 1606l215 278h193l225 -278h-205l-108 170l-115 -170h-205z" />
<glyph unicode="&#xcb;" horiz-adv-x="1155" d="M8 1532h942q45 0 61.5 -24.5t16.5 -65.5q0 -37 -45 -76t-121 -115h-119q41 49 87.5 90t46.5 89q0 29 -23 40t-56.5 15t-75.5 3t-81 -1q-94 2 -161.5 1t-162.5 -1q-63 0 -68 -46t-5 -130q0 -45 3 -83t15 -57q31 -8 94.5 -8h137t146.5 -4t124 -22q-2 -2 -17.5 -14.5 t-34 -28t-36 -26.5t-21.5 -9q-33 12 -94 17t-122.5 6t-112 0t-60.5 -3q-12 -2 -16 -21.5t-5 -48t0 -59t-1 -53.5q-2 -51 2 -118.5t30.5 -147.5t85 -170t162.5 -187q47 -43 99.5 -80.5t98.5 -69.5t84 -60.5t56 -53.5q-53 -4 -134 27t-171 88t-180 135t-163 165t-118 178 t-45 175v664q0 23 -5 35t-38 55zM231 1606v204h189v-204h-189zM604 1606v204h189v-204h-189z" />
<glyph unicode="&#xcc;" horiz-adv-x="393" d="M-133 1876h239l136 -279h-144zM47 1450q14 6 46 16.5t68 21.5t69.5 21.5t54.5 16.5l-2 -24q-2 -25 -4 -70v-92q0 -93 -1.5 -231t-2.5 -300t-1 -302v-235.5v-101.5q4 -33 12.5 -55.5t12.5 -28.5l-31 -12q-30 -13 -71 -29t-82 -30.5t-60 -18.5l7 36q6 36 6 79q0 4 1 80.5 t3 193.5t2 259v279.5t-1 254t-5 182.5q-2 33 -10.5 57.5t-10.5 32.5z" />
<glyph unicode="&#xcd;" horiz-adv-x="393" d="M47 1450q14 6 46 16.5t68 21.5t69.5 21.5t54.5 16.5l-2 -24q-2 -25 -4 -70v-92q0 -93 -1.5 -231t-2.5 -300t-1 -302v-235.5v-101.5q4 -33 12.5 -55.5t12.5 -28.5l-31 -12q-30 -13 -71 -29t-82 -30.5t-60 -18.5l7 36q6 36 6 79q0 4 1 80.5t3 193.5t2 259v279.5t-1 254 t-5 182.5q-2 33 -10.5 57.5t-10.5 32.5zM98 1606l133 278h236l-221 -278h-148z" />
<glyph unicode="&#xce;" horiz-adv-x="393" d="M-162 1614l215 278h193l225 -278h-205l-108 170l-115 -170h-205zM47 1450q14 6 46 16.5t68 21.5t69.5 21.5t54.5 16.5l-2 -24q-2 -25 -4 -70v-92q0 -93 -1.5 -231t-2.5 -300t-1 -302v-235.5v-101.5q4 -33 12.5 -55.5t12.5 -28.5l-31 -12q-30 -13 -71 -29t-82 -30.5 t-60 -18.5l7 36q6 36 6 79q0 4 1 80.5t3 193.5t2 259v279.5t-1 254t-5 182.5q-2 33 -10.5 57.5t-10.5 32.5z" />
<glyph unicode="&#xcf;" horiz-adv-x="393" d="M-121 1606v204h189v-204h-189zM47 1450q14 6 46 16.5t68 21.5t69.5 21.5t54.5 16.5l-2 -24q-2 -25 -4 -70v-92q0 -93 -1.5 -231t-2.5 -300t-1 -302v-235.5v-101.5q4 -33 12.5 -55.5t12.5 -28.5l-31 -12q-30 -13 -71 -29t-82 -30.5t-60 -18.5l7 36q6 36 6 79q0 4 1 80.5 t3 193.5t2 259v279.5t-1 254t-5 182.5q-2 33 -10.5 57.5t-10.5 32.5zM252 1606v204h188v-204h-188z" />
<glyph unicode="&#xd0;" horiz-adv-x="1359" d="M-41 678v180h76q2 158 0 299t-4 225q-2 63 -10.5 94t-12.5 40h875q102 0 170.5 -33t109.5 -88.5t57.5 -128t16.5 -150.5q0 -51 -24.5 -143t-78 -201.5t-135 -227.5t-194.5 -222.5t-259.5 -184.5t-328.5 -112q-57 -10 -117.5 -19.5t-91.5 -1.5q4 8 10.5 29.5t10.5 68.5 l1 48q1 47 2 126.5t2 184t1 217.5h-76zM254 123q141 20 273 123.5t233.5 245t163 298t61.5 281.5q0 70 -15.5 137.5t-52 121.5t-96 87t-147.5 33q-63 0 -136 2t-135.5 2t-104.5 -5t-44 -19v-572h258v-180h-258v-555z" />
<glyph unicode="&#xd1;" horiz-adv-x="1384" d="M29 1524l729 -4q133 0 230 -49.5t161.5 -131.5t95.5 -189.5t31 -225.5q0 -129 -46 -283t-114.5 -288t-148.5 -228t-150 -105q43 104 86 203t76 199t53.5 205.5t20.5 222.5q0 229 -64.5 353t-157 181.5t-194.5 66.5t-176 9q-72 0 -114 -2t-62.5 -15t-25.5 -44t-5 -88 q0 -49 1 -150.5t1 -224.5t2 -252t2 -235.5t1 -174.5l1 -69q4 -47 21.5 -75t23.5 -32q-18 -12 -53 -26.5t-76 -28.5t-80 -25.5t-65 -17.5q4 6 10 45t10 96v104.5v223.5t1 282.5t2 283.5t1 225.5t-2 107.5q-2 66 -11 107t-15 49zM283 1622q0 98 57 166q57 61 147 61 q57 0 168 -53q57 -31 95 -31q29 0 49 17q16 18 24 71h129q-2 -115 -57 -172q-57 -57 -139 -57q-63 0 -166 57q-66 35 -98 35q-31 0 -54 -24q-23 -23 -22 -70h-133z" />
<glyph unicode="&#xd2;" horiz-adv-x="1605" d="M8 1073q0 119 38 206t102.5 143.5t149.5 83t181 26.5h516q266 0 385 -130t119 -343q0 -197 -65.5 -387.5t-170 -341t-236.5 -242.5t-267 -92q-141 0 -275.5 97t-241 251t-171 346.5t-64.5 382.5zM242 999q0 -279 69.5 -455.5t159.5 -277t175 -136.5t116 -32 q84 8 152.5 64.5t123 140.5t94 186.5t65.5 202t39 185.5t13 139q0 111 -24.5 193.5t-83 138t-156 83t-240.5 27.5q-90 0 -180 -11t-161.5 -57.5t-116.5 -137.5t-45 -253zM449 1876h239l135 -279h-143z" />
<glyph unicode="&#xd3;" horiz-adv-x="1605" d="M8 1073q0 119 38 206t102.5 143.5t149.5 83t181 26.5h516q266 0 385 -130t119 -343q0 -197 -65.5 -387.5t-170 -341t-236.5 -242.5t-267 -92q-141 0 -275.5 97t-241 251t-171 346.5t-64.5 382.5zM242 999q0 -279 69.5 -455.5t159.5 -277t175 -136.5t116 -32 q84 8 152.5 64.5t123 140.5t94 186.5t65.5 202t39 185.5t13 139q0 111 -24.5 193.5t-83 138t-156 83t-240.5 27.5q-90 0 -180 -11t-161.5 -57.5t-116.5 -137.5t-45 -253zM623 1618l133 278h235l-221 -278h-147z" />
<glyph unicode="&#xd4;" horiz-adv-x="1605" d="M8 1073q0 119 38 206t102.5 143.5t149.5 83t181 26.5h516q266 0 385 -130t119 -343q0 -197 -65.5 -387.5t-170 -341t-236.5 -242.5t-267 -92q-141 0 -275.5 97t-241 251t-171 346.5t-64.5 382.5zM242 999q0 -279 69.5 -455.5t159.5 -277t175 -136.5t116 -32 q84 8 152.5 64.5t123 140.5t94 186.5t65.5 202t39 185.5t13 139q0 111 -24.5 193.5t-83 138t-156 83t-240.5 27.5q-90 0 -180 -11t-161.5 -57.5t-116.5 -137.5t-45 -253zM362 1597l216 279h192l225 -279h-204l-109 170l-115 -170h-205z" />
<glyph unicode="&#xd5;" horiz-adv-x="1605" d="M8 1073q0 119 38 206t102.5 143.5t149.5 83t181 26.5h516q266 0 385 -130t119 -343q0 -197 -65.5 -387.5t-170 -341t-236.5 -242.5t-267 -92q-141 0 -275.5 97t-241 251t-171 346.5t-64.5 382.5zM242 999q0 -279 69.5 -455.5t159.5 -277t175 -136.5t116 -32 q84 8 152.5 64.5t123 140.5t94 186.5t65.5 202t39 185.5t13 139q0 111 -24.5 193.5t-83 138t-156 83t-240.5 27.5q-90 0 -180 -11t-161.5 -57.5t-116.5 -137.5t-45 -253zM348 1597q0 98 58 166q57 61 147 62q57 0 168 -53q57 -31 94 -31q29 0 49 16q16 18 25 72h129 q-2 -115 -57 -172q-57 -57 -140 -58q-63 0 -166 58q-66 35 -98 35q-31 0 -53 -25q-23 -23 -23 -70h-133z" />
<glyph unicode="&#xd6;" horiz-adv-x="1605" d="M8 1073q0 119 38 206t102.5 143.5t149.5 83t181 26.5h516q266 0 385 -130t119 -343q0 -197 -65.5 -387.5t-170 -341t-236.5 -242.5t-267 -92q-141 0 -275.5 97t-241 251t-171 346.5t-64.5 382.5zM242 999q0 -279 69.5 -455.5t159.5 -277t175 -136.5t116 -32 q84 8 152.5 64.5t123 140.5t94 186.5t65.5 202t39 185.5t13 139q0 111 -24.5 193.5t-83 138t-156 83t-240.5 27.5q-90 0 -180 -11t-161.5 -57.5t-116.5 -137.5t-45 -253zM440 1618v205h189v-205h-189zM813 1618v205h188v-205h-188z" />
<glyph unicode="&#xd7;" horiz-adv-x="1196" d="M162 410l313 315l-313 313l123 121l313 -313l313 313l119 -121l-311 -313l313 -313l-121 -123l-313 313l-315 -313z" />
<glyph unicode="&#xd8;" horiz-adv-x="1605" d="M8 1073q0 119 38 206t102.5 143.5t149.5 83t181 26.5h371l43 156h143l-43 -156h2q266 0 385 -130t119 -343q0 -197 -65.5 -387.5t-170 -341t-236.5 -242.5t-267 -92q-92 0 -180 43l-41 -145h-146l62 221q-94 72 -175 179t-141.5 234t-95.5 267.5t-35 277.5zM242 999 q0 -147 21.5 -265t56 -210t80 -160.5t92.5 -117.5l337 1210q-20 2 -41.5 2h-42.5q-90 0 -180 -11t-161.5 -57.5t-116.5 -137.5t-45 -253zM610 152q51 -33 92 -44.5t60 -9.5q84 8 152.5 64.5t123 140.5t94 186.5t65.5 202t39 185.5t13 139q0 172 -62 276.5t-220 143.5z" />
<glyph unicode="&#xd9;" horiz-adv-x="1384" d="M8 582q0 170 54.5 331.5t126 289.5t145.5 210t112 90q-45 -119 -83.5 -216t-68.5 -190t-49.5 -191.5t-21.5 -219.5q-2 -125 33 -235.5t95.5 -192.5t139 -128t160.5 -44l320 8q23 16 34 57.5t11 90.5q0 35 1 131t2 222t0 265t-6 260t-13.5 206t-24.5 101q8 6 40 16.5 t69.5 22t72.5 20.5t51 13v-1274q0 -25 7.5 -56.5t17.5 -61t20.5 -54t14.5 -37.5h-699q-258 0 -409.5 142.5t-151.5 423.5zM449 1835h239l135 -279h-143z" />
<glyph unicode="&#xda;" horiz-adv-x="1384" d="M8 582q0 170 54.5 331.5t126 289.5t145.5 210t112 90q-45 -119 -83.5 -216t-68.5 -190t-49.5 -191.5t-21.5 -219.5q-2 -125 33 -235.5t95.5 -192.5t139 -128t160.5 -44l320 8q23 16 34 57.5t11 90.5q0 35 1 131t2 222t0 265t-6 260t-13.5 206t-24.5 101q8 6 40 16.5 t69.5 22t72.5 20.5t51 13v-1274q0 -25 7.5 -56.5t17.5 -61t20.5 -54t14.5 -37.5h-699q-258 0 -409.5 142.5t-151.5 423.5zM582 1556l133 279h235l-221 -279h-147z" />
<glyph unicode="&#xdb;" horiz-adv-x="1384" d="M8 582q0 170 54.5 331.5t126 289.5t145.5 210t112 90q-45 -119 -83.5 -216t-68.5 -190t-49.5 -191.5t-21.5 -219.5q-2 -125 33 -235.5t95.5 -192.5t139 -128t160.5 -44l320 8q23 16 34 57.5t11 90.5q0 35 1 131t2 222t0 265t-6 260t-13.5 206t-24.5 101q8 6 40 16.5 t69.5 22t72.5 20.5t51 13v-1274q0 -25 7.5 -56.5t17.5 -61t20.5 -54t14.5 -37.5h-699q-258 0 -409.5 142.5t-151.5 423.5zM362 1556l216 279h192l225 -279h-204l-109 170l-115 -170h-205z" />
<glyph unicode="&#xdc;" horiz-adv-x="1384" d="M8 582q0 170 54.5 331.5t126 289.5t145.5 210t112 90q-45 -119 -83.5 -216t-68.5 -190t-49.5 -191.5t-21.5 -219.5q-2 -125 33 -235.5t95.5 -192.5t139 -128t160.5 -44l320 8q23 16 34 57.5t11 90.5q0 35 1 131t2 222t0 265t-6 260t-13.5 206t-24.5 101q8 6 40 16.5 t69.5 22t72.5 20.5t51 13v-1274q0 -25 7.5 -56.5t17.5 -61t20.5 -54t14.5 -37.5h-699q-258 0 -409.5 142.5t-151.5 423.5zM379 1556v205h188v-205h-188zM752 1556v205h188v-205h-188z" />
<glyph unicode="&#xdd;" horiz-adv-x="1294" d="M8 1384q0 29 18.5 55.5t39.5 47.5h221q-20 -29 -39 -61.5t-19 -71.5q0 -25 50.5 -99.5t119 -153.5t137 -141.5t105.5 -62.5q4 2 43 40t102.5 100.5t123 127t102.5 120.5t43 83q0 29 -19.5 42t-48.5 17.5t-62.5 2t-62.5 -2.5q4 27 24.5 40.5t46 18.5t55.5 5h52 q74 4 121 -5t41 -73q-4 -37 -53 -109.5t-122 -167t-156 -205t-153.5 -225t-117.5 -224t-47 -203.5q0 -59 12.5 -92t34 -58t47 -49.5t53.5 -67.5h-340q-59 41 -80.5 80t-21.5 96q0 102 42 188.5t91 157t91 125t42 91.5q0 25 -37.5 62.5t-95 84.5t-125 103.5t-125 118 t-95.5 128.5t-38 137zM582 1556l133 279h235l-221 -279h-147z" />
<glyph unicode="&#xde;" horiz-adv-x="1366" d="M158 0v1466h194v-299h359q152 0 225 -14q154 -23 246 -130.5t96 -279.5q0 -92 -26.5 -173t-89 -141t-169 -95t-266.5 -35h-375v-299h-194zM352 471h379q186 0 264 68.5t82 197.5q0 86 -44 153.5t-124 90.5q-45 10 -182 14h-375v-524z" />
<glyph unicode="&#xdf;" horiz-adv-x="1251" d="M154 0v999q0 137 29.5 230.5t85 152t134 84t177.5 25.5q104 0 180 -35t122 -90t59 -125t-7 -141q-8 -27 -26.5 -64t-38 -71.5t-36 -65.5t-22.5 -47q-25 -63 10 -119q20 -29 121 -96q80 -53 128 -93t73.5 -77t34 -74t10.5 -82q0 -68 -26.5 -129t-74 -107t-115 -73 t-151.5 -27q-123 0 -217 65.5t-145 174.5l155 74q49 -96 99.5 -131t105.5 -35q74 0 129.5 51t55.5 123v38t-12.5 33.5t-43 44t-90.5 68.5q-160 111 -205 170q-59 94 -26 197q8 18 26.5 53t39 73t39 73.5t28.5 60.5q37 100 -16.5 167.5t-168.5 67.5q-53 0 -97 -14t-76.5 -53 t-50 -107.5t-17.5 -177.5v-991h-180z" />
<glyph unicode="&#xe0;" horiz-adv-x="1015" d="M23 268q0 88 49 161t123.5 135.5t160.5 114.5t161 94t124 78t49 64q0 27 -22.5 41.5t-58.5 20.5t-81 7t-90 1q-33 0 -68.5 -1t-66.5 -9t-51.5 -24.5t-20.5 -49.5q0 -12 11.5 -31.5t26 -39t27.5 -35t17 -21.5h-112q-39 51 -79 97t-40 85l4 16q4 17 18.5 35.5t41 34 t71.5 15.5h414q119 0 176 -60.5t78.5 -132t18.5 -132.5l-3 -60q0 -137 -2 -234.5t-1 -167t9 -113.5t27 -73q-4 -2 -37 -19.5t-89 -36t-103 -16.5q-20 27 -55.5 26t-80.5 -12.5t-97 -25.5t-107 -14q-53 0 -112.5 15t-111 49t-85 87t-33.5 131zM225 317q0 -61 31 -105 t72 -72.5t81 -42t58 -13.5q98 0 165.5 49t65.5 168l-4 453q-68 -12 -149.5 -68.5t-152 -127.5t-119 -138.5t-48.5 -102.5zM309 1475h242l133 -281h-143z" />
<glyph unicode="&#xe1;" horiz-adv-x="1015" d="M23 268q0 88 49 161t123.5 135.5t160.5 114.5t161 94t124 78t49 64q0 27 -22.5 41.5t-58.5 20.5t-81 7t-90 1q-33 0 -68.5 -1t-66.5 -9t-51.5 -24.5t-20.5 -49.5q0 -12 11.5 -31.5t26 -39t27.5 -35t17 -21.5h-112q-39 51 -79 97t-40 85l4 16q4 17 18.5 35.5t41 34 t71.5 15.5h414q119 0 176 -60.5t78.5 -132t18.5 -132.5l-3 -60q0 -137 -2 -234.5t-1 -167t9 -113.5t27 -73q-4 -2 -37 -19.5t-89 -36t-103 -16.5q-20 27 -55.5 26t-80.5 -12.5t-97 -25.5t-107 -14q-53 0 -112.5 15t-111 49t-85 87t-33.5 131zM225 317q0 -61 31 -105 t72 -72.5t81 -42t58 -13.5q98 0 165.5 49t65.5 168l-4 453q-68 -12 -149.5 -68.5t-152 -127.5t-119 -138.5t-48.5 -102.5zM463 1194l133 281h235l-219 -281h-149z" />
<glyph unicode="&#xe2;" horiz-adv-x="1015" d="M23 268q0 88 49 161t123.5 135.5t160.5 114.5t161 94t124 78t49 64q0 27 -22.5 41.5t-58.5 20.5t-81 7t-90 1q-33 0 -68.5 -1t-66.5 -9t-51.5 -24.5t-20.5 -49.5q0 -12 11.5 -31.5t26 -39t27.5 -35t17 -21.5h-112q-39 51 -79 97t-40 85l4 16q4 17 18.5 35.5t41 34 t71.5 15.5h414q119 0 176 -60.5t78.5 -132t18.5 -132.5l-3 -60q0 -137 -2 -234.5t-1 -167t9 -113.5t27 -73q-4 -2 -37 -19.5t-89 -36t-103 -16.5q-20 27 -55.5 26t-80.5 -12.5t-97 -25.5t-107 -14q-53 0 -112.5 15t-111 49t-85 87t-33.5 131zM225 317q0 -61 31 -105 t72 -72.5t81 -42t58 -13.5q98 0 165.5 49t65.5 168l-4 453q-68 -12 -149.5 -68.5t-152 -127.5t-119 -138.5t-48.5 -102.5zM248 1194l215 281h192l226 -281h-205l-111 170l-112 -170h-205z" />
<glyph unicode="&#xe3;" horiz-adv-x="1015" d="M23 268q0 88 49 161t123.5 135.5t160.5 114.5t161 94t124 78t49 64q0 27 -22.5 41.5t-58.5 20.5t-81 7t-90 1q-33 0 -68.5 -1t-66.5 -9t-51.5 -24.5t-20.5 -49.5q0 -12 11.5 -31.5t26 -39t27.5 -35t17 -21.5h-112q-39 51 -79 97t-40 85l4 16q4 17 18.5 35.5t41 34 t71.5 15.5h414q119 0 176 -60.5t78.5 -132t18.5 -132.5l-3 -60q0 -137 -2 -234.5t-1 -167t9 -113.5t27 -73q-4 -2 -37 -19.5t-89 -36t-103 -16.5q-20 27 -55.5 26t-80.5 -12.5t-97 -25.5t-107 -14q-53 0 -112.5 15t-111 49t-85 87t-33.5 131zM225 317q0 -61 31 -105 t72 -72.5t81 -42t58 -13.5q98 0 165.5 49t65.5 168l-4 453q-68 -12 -149.5 -68.5t-152 -127.5t-119 -138.5t-48.5 -102.5zM229 1219q0 106 58 165q55 59 145 64q61 0 168 -55q57 -29 94 -29q33 0 49 16q18 18 25 70h129q0 -113 -57 -170q-51 -57 -138 -57q-70 0 -165 55 q-68 37 -99 37q-33 0 -55 -25q-20 -23 -21 -71h-133z" />
<glyph unicode="&#xe4;" horiz-adv-x="1015" d="M23 268q0 88 49 161t123.5 135.5t160.5 114.5t161 94t124 78t49 64q0 27 -22.5 41.5t-58.5 20.5t-81 7t-90 1q-33 0 -68.5 -1t-66.5 -9t-51.5 -24.5t-20.5 -49.5q0 -12 11.5 -31.5t26 -39t27.5 -35t17 -21.5h-112q-39 51 -79 97t-40 85l4 16q4 17 18.5 35.5t41 34 t71.5 15.5h414q119 0 176 -60.5t78.5 -132t18.5 -132.5l-3 -60q0 -137 -2 -234.5t-1 -167t9 -113.5t27 -73q-4 -2 -37 -19.5t-89 -36t-103 -16.5q-20 27 -55.5 26t-80.5 -12.5t-97 -25.5t-107 -14q-53 0 -112.5 15t-111 49t-85 87t-33.5 131zM225 317q0 -61 31 -105 t72 -72.5t81 -42t58 -13.5q98 0 165.5 49t65.5 168l-4 453q-68 -12 -149.5 -68.5t-152 -127.5t-119 -138.5t-48.5 -102.5zM283 1270v205h188v-205h-188zM655 1270v205h189v-205h-189z" />
<glyph unicode="&#xe5;" horiz-adv-x="1015" d="M23 268q0 88 49 161t123.5 135.5t160.5 114.5t161 94t124 78t49 64q0 27 -22.5 41.5t-58.5 20.5t-81 7t-90 1q-33 0 -68.5 -1t-66.5 -9t-51.5 -24.5t-20.5 -49.5q0 -12 11.5 -31.5t26 -39t27.5 -35t17 -21.5h-112q-39 51 -79 97t-40 85l4 16q4 17 18.5 35.5t41 34 t71.5 15.5h414q119 0 176 -60.5t78.5 -132t18.5 -132.5l-3 -60q0 -137 -2 -234.5t-1 -167t9 -113.5t27 -73q-4 -2 -37 -19.5t-89 -36t-103 -16.5q-20 27 -55.5 26t-80.5 -12.5t-97 -25.5t-107 -14q-53 0 -112.5 15t-111 49t-85 87t-33.5 131zM225 317q0 -61 31 -105 t72 -72.5t81 -42t58 -13.5q98 0 165.5 49t65.5 168l-4 453q-68 -12 -149.5 -68.5t-152 -127.5t-119 -138.5t-48.5 -102.5zM383 1337q0 72 52 125.5t128 55.5q72 0 125 -53.5t55 -131.5q0 -76 -53 -127t-127 -55q-72 0 -125 52t-55 134zM459 1337q0 -47 31.5 -78.5 t74.5 -31.5t73 31.5t34 76.5q0 47 -31 78t-76 31q-41 0 -71.5 -30t-34.5 -77z" />
<glyph unicode="&#xe6;" horiz-adv-x="1646" d="M23 268q0 80 40.5 147.5t105 126t141.5 107.5t149.5 91t130 77t84.5 64q0 37 6 63q-27 31 -97.5 36t-144.5 5q-33 0 -68.5 -1t-66.5 -9t-51.5 -24.5t-20.5 -49.5q0 -12 11.5 -31.5t26 -39t27.5 -35t17 -21.5h-112q-39 51 -79 97.5t-40 84.5l4 16q4 17 18.5 35.5t41 34 t71.5 15.5h414q61 0 106 -19q39 27 95.5 30t121.5 3q147 0 266 2t250 -6q18 0 40 -13.5t38.5 -34t27.5 -44t11 -43.5q0 -100 -73.5 -192.5t-161.5 -168t-162 -131t-74 -84.5q0 -18 50.5 -67t112.5 -106.5t117.5 -108.5t65.5 -72q-43 2 -109.5 29.5t-144.5 75t-158.5 114 t-152.5 148.5q0 -115 6 -180.5t31 -104.5q-4 -2 -37 -19.5t-89 -36t-103 -16.5q-20 27 -55.5 26t-80.5 -12.5t-97 -25.5t-107 -14q-53 0 -112.5 15t-111 49t-85 87t-33.5 131zM225 317q0 -61 31 -105t72 -72.5t81 -42t58 -13.5q98 0 165.5 49t65.5 168l-4 428q-4 17 -6 23 q-68 -14 -148.5 -70.5t-150.5 -126.5t-117 -136.5t-47 -101.5zM891 844q6 -25 8 -49.5t4 -44.5q12 -55 32.5 -106.5t42 -91.5t42 -65.5t31.5 -27.5q35 -8 93 35t114.5 109.5t97.5 141t41 127.5q0 49 -15.5 77t-46 40t-79 14.5t-111.5 2.5q-41 0 -86 -1t-82 -13.5t-61.5 -43 t-24.5 -90.5v-14z" />
<glyph unicode="&#xe7;" horiz-adv-x="991" d="M8 852q0 82 39 124t99.5 60.5t133 20.5t140.5 2q160 0 257 -1t149.5 -8.5t67.5 -22.5t13 -42q-6 -59 -54 -97t-108 -93h-90q16 37 35 58t34 37.5t25.5 30t10.5 35.5q0 31 -95.5 35t-258.5 4q-53 0 -82 -20.5t-44.5 -49t-18.5 -61.5t-3 -55q0 -117 37 -213t93 -177 t125 -145.5t130.5 -117t107.5 -95.5t60 -77q-68 6 -143 36l-17 -51q82 -10 125 -50t47 -97q0 -76 -73.5 -131.5t-214.5 -59.5q-82 0 -146 13l12 116q31 -2 54.5 -2t40.5 -2q160 0 159 76q0 16 -9 30.5t-44 24.5q-31 10 -104 13l53 176q-96 53 -193.5 134t-175.5 180 t-126 217t-48 245z" />
<glyph unicode="&#xe8;" horiz-adv-x="1015" d="M-2 872q-2 76 19.5 117t59.5 59.5t90 20.5t112 2q147 0 266 2t250 -6q18 0 39.5 -13.5t38 -34t27.5 -44t11 -43.5q0 -100 -73.5 -192.5t-161.5 -168t-162 -131t-74 -84.5q0 -18 50.5 -67t113 -106.5t117.5 -108.5t65 -72q-49 2 -124.5 35t-162.5 90t-175 137t-160 176.5 t-118 205.5t-48 226zM166 1475h242l135 -281h-146zM215 858q0 -70 20.5 -139.5t47 -125.5t53 -93t39.5 -41q35 -8 93 35t114.5 109.5t97.5 141t41 127.5q0 49 -15.5 77t-46 40t-79 14.5t-111.5 2.5q-41 0 -86 -1t-82 -13.5t-61.5 -43t-24.5 -90.5z" />
<glyph unicode="&#xe9;" horiz-adv-x="1015" d="M-2 872q-2 76 19.5 117t59.5 59.5t90 20.5t112 2q147 0 266 2t250 -6q18 0 39.5 -13.5t38 -34t27.5 -44t11 -43.5q0 -100 -73.5 -192.5t-161.5 -168t-162 -131t-74 -84.5q0 -18 50.5 -67t113 -106.5t117.5 -108.5t65 -72q-49 2 -124.5 35t-162.5 90t-175 137t-160 176.5 t-118 205.5t-48 226zM215 858q0 -70 20.5 -139.5t47 -125.5t53 -93t39.5 -41q35 -8 93 35t114.5 109.5t97.5 141t41 127.5q0 49 -15.5 77t-46 40t-79 14.5t-111.5 2.5q-41 0 -86 -1t-82 -13.5t-61.5 -43t-24.5 -90.5zM322 1194l133 281h235l-219 -281h-149z" />
<glyph unicode="&#xea;" horiz-adv-x="1015" d="M-2 872q-2 76 19.5 117t59.5 59.5t90 20.5t112 2q147 0 266 2t250 -6q18 0 39.5 -13.5t38 -34t27.5 -44t11 -43.5q0 -100 -73.5 -192.5t-161.5 -168t-162 -131t-74 -84.5q0 -18 50.5 -67t113 -106.5t117.5 -108.5t65 -72q-49 2 -124.5 35t-162.5 90t-175 137t-160 176.5 t-118 205.5t-48 226zM125 1194l217 281h190l226 -281h-203l-111 170l-112 -170h-207zM215 858q0 -70 20.5 -139.5t47 -125.5t53 -93t39.5 -41q35 -8 93 35t114.5 109.5t97.5 141t41 127.5q0 49 -15.5 77t-46 40t-79 14.5t-111.5 2.5q-41 0 -86 -1t-82 -13.5t-61.5 -43 t-24.5 -90.5z" />
<glyph unicode="&#xeb;" horiz-adv-x="1015" d="M-2 872q-2 76 19.5 117t59.5 59.5t90 20.5t112 2q147 0 266 2t250 -6q18 0 39.5 -13.5t38 -34t27.5 -44t11 -43.5q0 -100 -73.5 -192.5t-161.5 -168t-162 -131t-74 -84.5q0 -18 50.5 -67t113 -106.5t117.5 -108.5t65 -72q-49 2 -124.5 35t-162.5 90t-175 137t-160 176.5 t-118 205.5t-48 226zM162 1229v205h186v-205h-186zM215 858q0 -70 20.5 -139.5t47 -125.5t53 -93t39.5 -41q35 -8 93 35t114.5 109.5t97.5 141t41 127.5q0 49 -15.5 77t-46 40t-79 14.5t-111.5 2.5q-41 0 -86 -1t-82 -13.5t-61.5 -43t-24.5 -90.5zM535 1229v205h188v-205 h-188z" />
<glyph unicode="&#xec;" horiz-adv-x="385" d="M-129 1454h242l135 -280h-146zM4 -10q8 27 19.5 43t20.5 31.5t15.5 33t6.5 47.5v854q12 25 32.5 36.5t46 17.5t55 13t58.5 24v-1033q-27 -6 -63.5 -17t-73.5 -22.5t-69 -19.5t-48 -8z" />
<glyph unicode="&#xed;" horiz-adv-x="385" d="M4 -10q8 27 19.5 43t20.5 31.5t15.5 33t6.5 47.5v854q12 25 32.5 36.5t46 17.5t55 13t58.5 24v-1033q-27 -6 -63.5 -17t-73.5 -22.5t-69 -19.5t-48 -8zM57 1169l133 281h236l-219 -281h-150z" />
<glyph unicode="&#xee;" horiz-adv-x="385" d="M-174 1161l215 281h192l226 -281h-205l-109 170l-114 -170h-205zM4 -10q8 27 19.5 43t20.5 31.5t15.5 33t6.5 47.5v854q12 25 32.5 36.5t46 17.5t55 13t58.5 24v-1033q-27 -6 -63.5 -17t-73.5 -22.5t-69 -19.5t-48 -8z" />
<glyph unicode="&#xef;" horiz-adv-x="385" d="M-135 1184v205h188v-205h-188zM4 -10q8 27 19.5 43t20.5 31.5t15.5 33t6.5 47.5v854q12 25 32.5 36.5t46 17.5t55 13t58.5 24v-1033q-27 -6 -63.5 -17t-73.5 -22.5t-69 -19.5t-48 -8zM240 1184v205h186v-205h-186z" />
<glyph unicode="&#xf0;" horiz-adv-x="1138" d="M74 516q0 262 129 404q129 141 321 143q59 0 103 -12q39 -10 110 -47q-39 74 -63 112q-14 20 -32.5 45t-45.5 56l-277 -127l-43 102l238 108q-47 47 -98.5 87t-108.5 79h217q37 -29 68 -53t57 -49l215 102l45 -102l-172 -84q319 -367 320 -760q0 -254 -139 -399 t-355 -146q-254 0 -397 195q-92 125 -92 346zM256 512q0 -188 88 -293q86 -96 219 -96q129 0 217 102q90 106 90 303q0 190 -92 293q-88 102 -221 103q-131 0 -215 -103q-82 -98 -86 -309z" />
<glyph unicode="&#xf1;" horiz-adv-x="1130" d="M23 1073h311q14 -4 70.5 -5t134 -9t163.5 -29.5t159 -65.5t121 -118t48 -187q0 -43 -26.5 -140t-75.5 -203.5t-117 -196.5t-149 -121q6 37 34.5 98.5t59 140t56.5 175t26 202.5q0 96 -39 176t-110 134.5t-172 79t-226 8.5q-14 -2 -23.5 -39t-13.5 -97.5t-6 -136 t-2 -153.5q0 -55 -3 -109.5t-4 -114t3 -129t18 -155.5q-37 -29 -99.5 -47.5t-131.5 -40.5q4 25 9 62.5t7 76.5l4 813q-4 47 -12 81t-14 50zM164 1260q0 106 57 165q55 59 146 64q59 0 170 -55q55 -29 92 -29q35 0 49 16q18 18 24 70h132q-2 -115 -60 -170q-51 -57 -137 -57 q-68 0 -166 55q-68 37 -98 37q-33 0 -56 -25q-20 -23 -20 -71h-133z" />
<glyph unicode="&#xf2;" d="M8 688q0 168 76 262t190 94h459q16 0 64.5 -11t100.5 -46t92 -103.5t40 -181.5q0 -125 -44 -248.5t-116.5 -223t-166 -161t-191.5 -61.5q-74 0 -162 48t-163.5 137.5t-127 214t-51.5 280.5zM195 621q12 -172 57 -275.5t96 -159t95 -73t53 -17.5q76 0 138 72t106 168 t67.5 193.5t23.5 150.5q0 80 -11 136t-45 92t-94.5 53.5t-158.5 17.5q-82 0 -146.5 -15.5t-107.5 -55.5t-62.5 -109.5t-10.5 -177.5zM205 1475h241l134 -281h-144z" />
<glyph unicode="&#xf3;" d="M8 688q0 168 76 262t190 94h459q16 0 64.5 -11t100.5 -46t92 -103.5t40 -181.5q0 -125 -44 -248.5t-116.5 -223t-166 -161t-191.5 -61.5q-74 0 -162 48t-163.5 137.5t-127 214t-51.5 280.5zM195 621q12 -172 57 -275.5t96 -159t95 -73t53 -17.5q76 0 138 72t106 168 t67.5 193.5t23.5 150.5q0 80 -11 136t-45 92t-94.5 53.5t-158.5 17.5q-82 0 -146.5 -15.5t-107.5 -55.5t-62.5 -109.5t-10.5 -177.5zM365 1194l131 281h237l-221 -281h-147z" />
<glyph unicode="&#xf4;" d="M8 688q0 168 76 262t190 94h459q16 0 64.5 -11t100.5 -46t92 -103.5t40 -181.5q0 -125 -44 -248.5t-116.5 -223t-166 -161t-191.5 -61.5q-74 0 -162 48t-163.5 137.5t-127 214t-51.5 280.5zM147 1194l215 281h193l225 -281h-205l-110 170l-113 -170h-205zM195 621 q12 -172 57 -275.5t96 -159t95 -73t53 -17.5q76 0 138 72t106 168t67.5 193.5t23.5 150.5q0 80 -11 136t-45 92t-94.5 53.5t-158.5 17.5q-82 0 -146.5 -15.5t-107.5 -55.5t-62.5 -109.5t-10.5 -177.5z" />
<glyph unicode="&#xf5;" d="M8 688q0 168 76 262t190 94h459q16 0 64.5 -11t100.5 -46t92 -103.5t40 -181.5q0 -125 -44 -248.5t-116.5 -223t-166 -161t-191.5 -61.5q-74 0 -162 48t-163.5 137.5t-127 214t-51.5 280.5zM150 1219q0 106 57 165q55 59 145 64q61 0 168 -55q55 -29 94 -29q33 0 50 16 q18 18 24 70h129q-4 -117 -57 -170q-51 -57 -137 -57q-70 0 -166 55q-68 37 -99 37q-35 0 -55 -25q-20 -23 -20 -71h-133zM195 621q12 -172 57 -275.5t96 -159t95 -73t53 -17.5q76 0 138 72t106 168t67.5 193.5t23.5 150.5q0 80 -11 136t-45 92t-94.5 53.5t-158.5 17.5 q-82 0 -146.5 -15.5t-107.5 -55.5t-62.5 -109.5t-10.5 -177.5z" />
<glyph unicode="&#xf6;" d="M8 688q0 168 76 262t190 94h459q16 0 64.5 -11t100.5 -46t92 -103.5t40 -181.5q0 -125 -44 -248.5t-116.5 -223t-166 -161t-191.5 -61.5q-74 0 -162 48t-163.5 137.5t-127 214t-51.5 280.5zM195 621q12 -172 57 -275.5t96 -159t95 -73t53 -17.5q76 0 138 72t106 168 t67.5 193.5t23.5 150.5q0 80 -11 136t-45 92t-94.5 53.5t-158.5 17.5q-82 0 -146.5 -15.5t-107.5 -55.5t-62.5 -109.5t-10.5 -177.5zM203 1270v205h188v-205h-188zM575 1270v205h189v-205h-189z" />
<glyph unicode="&#xf7;" horiz-adv-x="1124" d="M78 639v168h969v-168h-969zM459 319v205h205v-205h-205zM459 922v204h205v-204h-205z" />
<glyph unicode="&#xf8;" d="M8 688q0 168 76 262t190 94h293l27 99h115q0 -4 -6.5 -25.5t-14.5 -47.5l-8 -26h53q16 0 64.5 -11t100.5 -46t92 -103.5t40 -181.5q0 -125 -44 -248.5t-116.5 -223t-166 -161t-191.5 -61.5q-55 0 -113 25l-28 -103h-117l45 158q-57 41 -109.5 101.5t-92.5 136t-64.5 167 t-24.5 195.5zM195 621q10 -158 50 -257.5t87 -156.5l217 772h-27q-82 0 -146.5 -15.5t-107.5 -55.5t-62.5 -109.5t-10.5 -177.5zM424 125q27 -16 47.5 -22.5t24.5 -6.5q76 0 138 72t106 168t67.5 193.5t23.5 150.5q0 125 -33 194.5t-139 92.5z" />
<glyph unicode="&#xf9;" d="M8 440q0 78 32 176.5t80 188.5t104.5 158.5t107.5 89.5q-6 -45 -29.5 -104.5t-50.5 -131.5t-47.5 -155.5t-20.5 -178.5q0 -117 42 -197.5t111 -131t156 -72t179 -21.5q29 0 42 1t20 4.5t15.5 11.5t24.5 20v92q0 91 -1 216.5t-3 257t-6 213.5q-6 33 -20.5 63.5t-22.5 34.5 q-4 10 17.5 19.5t58.5 21.5t85 27.5t101 37.5q-4 -6 -7 -40.5t-5 -90.5v-181t1 -216t2 -215.5t5 -177.5q6 -68 12 -97.5t29 -56.5q-4 0 -65.5 -1t-160 -1h-194.5t-173 1t-95 5q-47 10 -103.5 30.5t-105.5 68t-82 127t-33 204.5zM352 1475h242l133 -281h-143z" />
<glyph unicode="&#xfa;" d="M8 440q0 78 32 176.5t80 188.5t104.5 158.5t107.5 89.5q-6 -45 -29.5 -104.5t-50.5 -131.5t-47.5 -155.5t-20.5 -178.5q0 -117 42 -197.5t111 -131t156 -72t179 -21.5q29 0 42 1t20 4.5t15.5 11.5t24.5 20v92q0 91 -1 216.5t-3 257t-6 213.5q-6 33 -20.5 63.5t-22.5 34.5 q-4 10 17.5 19.5t58.5 21.5t85 27.5t101 37.5q-4 -6 -7 -40.5t-5 -90.5v-181t1 -216t2 -215.5t5 -177.5q6 -68 12 -97.5t29 -56.5q-4 0 -65.5 -1t-160 -1h-194.5t-173 1t-95 5q-47 10 -103.5 30.5t-105.5 68t-82 127t-33 204.5zM453 1194l133 281h235l-219 -281h-149z" />
<glyph unicode="&#xfb;" d="M8 440q0 78 32 176.5t80 188.5t104.5 158.5t107.5 89.5q-6 -45 -29.5 -104.5t-50.5 -131.5t-47.5 -155.5t-20.5 -178.5q0 -117 42 -197.5t111 -131t156 -72t179 -21.5q29 0 42 1t20 4.5t15.5 11.5t24.5 20v92q0 91 -1 216.5t-3 257t-6 213.5q-6 33 -20.5 63.5t-22.5 34.5 q-4 10 17.5 19.5t58.5 21.5t85 27.5t101 37.5q-4 -6 -7 -40.5t-5 -90.5v-181t1 -216t2 -215.5t5 -177.5q6 -68 12 -97.5t29 -56.5q-4 0 -65.5 -1t-160 -1h-194.5t-173 1t-95 5q-47 10 -103.5 30.5t-105.5 68t-82 127t-33 204.5zM246 1194l215 281h192l226 -281h-205 l-111 170l-112 -170h-205z" />
<glyph unicode="&#xfc;" d="M8 440q0 78 32 176.5t80 188.5t104.5 158.5t107.5 89.5q-6 -45 -29.5 -104.5t-50.5 -131.5t-47.5 -155.5t-20.5 -178.5q0 -117 42 -197.5t111 -131t156 -72t179 -21.5q29 0 42 1t20 4.5t15.5 11.5t24.5 20v92q0 91 -1 216.5t-3 257t-6 213.5q-6 33 -20.5 63.5t-22.5 34.5 q-4 10 17.5 19.5t58.5 21.5t85 27.5t101 37.5q-4 -6 -7 -40.5t-5 -90.5v-181t1 -216t2 -215.5t5 -177.5q6 -68 12 -97.5t29 -56.5q-4 0 -65.5 -1t-160 -1h-194.5t-173 1t-95 5q-47 10 -103.5 30.5t-105.5 68t-82 127t-33 204.5zM281 1270v205h188v-205h-188zM653 1270v205 h189v-205h-189z" />
<glyph unicode="&#xfd;" horiz-adv-x="1064" d="M20 958q0 45 17.5 70t42 35t49.5 12t39 2q27 0 62.5 -8t62.5 -4q-2 -43 -19.5 -68.5t-17.5 -66.5q0 -61 41 -127t91 -120t92 -90t44 -36l48 49q49 49 107 117t111.5 137.5t61.5 112.5q-33 6 -50.5 12t-34.5 10t-43 6.5t-75 2.5q29 53 56.5 55t99.5 2q96 0 136 -20.5 t40 -53.5q0 -20 -42 -74.5t-104.5 -134.5t-135 -179t-135 -208.5t-104.5 -225.5t-42 -226q0 -70 8 -108t22.5 -65.5t34 -57.5t41.5 -81q-4 0 -27.5 -4t-60.5 -5t-61 9q-84 33 -138.5 91.5t-54.5 175.5q0 78 33 159.5t71 154.5t70.5 127t32.5 75q0 16 -57.5 75.5t-127 139.5 t-127 168.5t-57.5 164.5zM420 1194l133 281h235l-219 -281h-149z" />
<glyph unicode="&#xfe;" horiz-adv-x="1138" d="M135 -408v1874h180v-516q82 88 145.5 111.5t145.5 23.5q98 0 180 -40.5t142.5 -113.5t94.5 -173.5t34 -218.5q0 -121 -37 -223.5t-99.5 -178.5t-146.5 -119t-178 -43q-72 0 -135.5 22.5t-145.5 113.5v-519h-180zM299 524q0 -201 82 -300t201 -99t204.5 100.5t85.5 315.5 q0 201 -81.5 302t-200.5 101q-55 0 -108.5 -26.5t-93.5 -79t-64.5 -131.5t-24.5 -183z" />
<glyph unicode="&#xff;" horiz-adv-x="1064" d="M20 958q0 45 17.5 70t42 35t49.5 12t39 2q27 0 62.5 -8t62.5 -4q-2 -43 -19.5 -68.5t-17.5 -66.5q0 -61 41 -127t91 -120t92 -90t44 -36l48 49q49 49 107 117t111.5 137.5t61.5 112.5q-33 6 -50.5 12t-34.5 10t-43 6.5t-75 2.5q29 53 56.5 55t99.5 2q96 0 136 -20.5 t40 -53.5q0 -20 -42 -74.5t-104.5 -134.5t-135 -179t-135 -208.5t-104.5 -225.5t-42 -226q0 -70 8 -108t22.5 -65.5t34 -57.5t41.5 -81q-4 0 -27.5 -4t-60.5 -5t-61 9q-84 33 -138.5 91.5t-54.5 175.5q0 78 33 159.5t71 154.5t70.5 127t32.5 75q0 16 -57.5 75.5t-127 139.5 t-127 168.5t-57.5 164.5zM244 1270v205h186v-205h-186zM616 1270v205h189v-205h-189z" />
<glyph unicode="&#x152;" horiz-adv-x="2293" d="M8 1073q0 119 38 206t102.5 143.5t149.5 83t181 26.5h516q152 0 252 -43q-4 8 -12 17.5t-18 25.5h942q45 0 61 -24.5t16 -65.5q0 -37 -45 -76t-120 -115h-119q41 49 87 90t46 89q0 29 -22.5 40t-56.5 15t-76 3t-81 -1q-94 2 -161.5 1t-161.5 -1q-63 0 -68.5 -46 t-5.5 -130v-13q31 -63 39 -131q39 -6 101.5 -6h131t135 -4t113.5 -20q-2 -2 -17.5 -14.5t-33.5 -28t-35.5 -26.5t-21.5 -9q-29 10 -79 16t-104.5 7t-103.5 0t-78 -3v-20q0 -160 -43 -309q14 -98 72.5 -220t204.5 -256q47 -43 99 -80.5t98 -69.5t84 -60.5t57 -53.5 q-59 -6 -152.5 33t-194 108.5t-196.5 160.5t-164 190q-53 -109 -123 -202t-148.5 -160.5t-163.5 -105.5t-169 -38q-141 0 -275.5 97t-241 251t-171 346.5t-64.5 382.5zM242 999q0 -279 69.5 -455.5t159.5 -277t175 -136.5t116 -32q84 8 152.5 64.5t123 140.5t94 186.5 t65.5 202t39 185.5t13 139q0 111 -24.5 193.5t-83 138t-156 83t-240.5 27.5q-90 0 -180 -11t-161.5 -57.5t-116.5 -137.5t-45 -253z" />
<glyph unicode="&#x153;" horiz-adv-x="1753" d="M8 688q0 168 76 262t190 94h459q10 0 40 -4t65 -20q35 41 98 46t141 5q147 0 266 2t250 -6q18 0 40 -13.5t38.5 -34t27.5 -44t11 -43.5q0 -100 -73.5 -192.5t-162 -168t-162 -131t-73.5 -84.5q0 -18 50 -67t112.5 -106.5t118 -108.5t65.5 -72q-47 2 -120.5 33t-158.5 86 t-172 133t-159 170q-33 -86 -84 -162t-111.5 -132t-129 -89t-138.5 -33q-74 0 -162 48t-163.5 137.5t-127 214t-51.5 280.5zM195 621q12 -172 57 -275.5t96 -159t95 -73t53 -17.5q76 0 138 72t106 168t67.5 193.5t23.5 150.5v2q-33 96 -34 190v7q-29 51 -93.5 75.5 t-181.5 24.5q-82 0 -146.5 -15.5t-107.5 -55.5t-62.5 -109.5t-10.5 -177.5zM1014 837.5q0 -10.5 2 -18.5q8 -37 12 -80q12 -55 32.5 -104t42 -88t41 -62.5t30.5 -25.5q35 -8 93 35t114.5 109.5t97.5 141t41 127.5q0 49 -15.5 77t-46.5 40t-79 14.5t-111 2.5q-41 0 -86 -1 t-82 -13.5t-61.5 -43t-24.5 -90.5v-20.5z" />
<glyph unicode="&#x178;" horiz-adv-x="1294" d="M8 1384q0 29 18.5 55.5t39.5 47.5h221q-20 -29 -39 -61.5t-19 -71.5q0 -25 50.5 -99.5t119 -153.5t137 -141.5t105.5 -62.5q4 2 43 40t102.5 100.5t123 127t102.5 120.5t43 83q0 29 -19.5 42t-48.5 17.5t-62.5 2t-62.5 -2.5q4 27 24.5 40.5t46 18.5t55.5 5h52 q74 4 121 -5t41 -73q-4 -37 -53 -109.5t-122 -167t-156 -205t-153.5 -225t-117.5 -224t-47 -203.5q0 -59 12.5 -92t34 -58t47 -49.5t53.5 -67.5h-340q-59 41 -80.5 80t-21.5 96q0 102 42 188.5t91 157t91 125t42 91.5q0 25 -37.5 62.5t-95 84.5t-125 103.5t-125 118 t-95.5 128.5t-38 137zM315 1565v204h189v-204h-189zM688 1565v204h189v-204h-189z" />
<glyph unicode="&#x2000;" horiz-adv-x="960" />
<glyph unicode="&#x2001;" horiz-adv-x="1921" />
<glyph unicode="&#x2002;" horiz-adv-x="960" />
<glyph unicode="&#x2003;" horiz-adv-x="1921" />
<glyph unicode="&#x2004;" horiz-adv-x="640" />
<glyph unicode="&#x2005;" horiz-adv-x="480" />
<glyph unicode="&#x2006;" horiz-adv-x="320" />
<glyph unicode="&#x2007;" horiz-adv-x="320" />
<glyph unicode="&#x2008;" horiz-adv-x="240" />
<glyph unicode="&#x2009;" horiz-adv-x="384" />
<glyph unicode="&#x200a;" horiz-adv-x="106" />
<glyph unicode="&#x2010;" horiz-adv-x="663" d="M81 640q3 42 21.5 63.5t22.5 23.5q10 10 70.5 10t130 -3t127 -8t59.5 -7q4 0 28.5 -3t35 -25.5t-40.5 -74.5q-8 -6 -68.5 -20t-133.5 -26.5t-133.5 -18.5t-68.5 0q-53 47 -50 89z" />
<glyph unicode="&#x2011;" horiz-adv-x="663" d="M81 640q3 42 21.5 63.5t22.5 23.5q10 10 70.5 10t130 -3t127 -8t59.5 -7q4 0 28.5 -3t35 -25.5t-40.5 -74.5q-8 -6 -68.5 -20t-133.5 -26.5t-133.5 -18.5t-68.5 0q-53 47 -50 89z" />
<glyph unicode="&#x2012;" horiz-adv-x="663" d="M81 640q3 42 21.5 63.5t22.5 23.5q10 10 70.5 10t130 -3t127 -8t59.5 -7q4 0 28.5 -3t35 -25.5t-40.5 -74.5q-8 -6 -68.5 -20t-133.5 -26.5t-133.5 -18.5t-68.5 0q-53 47 -50 89z" />
<glyph unicode="&#x2013;" horiz-adv-x="1188" d="M80.5 640q6.5 42 44.5 63.5t46 23.5q21 10 145.5 10t268 -3t262 -8t122.5 -7q9 0 59.5 -3t72 -25.5t-83.5 -74.5q-17 -6 -141.5 -20t-275 -26.5t-275.5 -18.5t-142 0q-109 47 -102.5 89z" />
<glyph unicode="&#x2014;" horiz-adv-x="2212" d="M80.5 640q12.5 42 89 63.5t92.5 23.5q41 10 291 10t536.5 -3t523.5 -8t246 -7q16 0 117 -3t144.5 -25.5t-166.5 -74.5q-33 -6 -283 -20t-551 -26.5t-550.5 -18.5t-282.5 0q-219 47 -206.5 89z" />
<glyph unicode="&#x2026;" horiz-adv-x="983" d="M94 45q-4 70 34 110t70.5 51t39.5 13q12 0 26.5 -14.5t25.5 -31.5t18 -33.5t7 -18.5q0 -4 -9 -32t-45 -59.5t-107 -31.5q-20 0 -39 13.5t-21 33.5zM401 45q-4 70 34 110t71 51l39 13q12 0 26.5 -14.5t25.5 -31.5t18.5 -33.5t7.5 -18.5q0 -4 -9.5 -32t-45.5 -59.5 t-107 -31.5q-20 0 -39 13.5t-21 33.5zM709 45q-4 70 33.5 110t70.5 51l39 13q12 0 26.5 -14.5t25.5 -31.5t18.5 -33.5t7.5 -18.5q0 -4 -9.5 -32t-45 -59.5t-107.5 -31.5q-20 0 -38.5 13.5t-20.5 33.5z" />
<glyph unicode="&#x202f;" horiz-adv-x="384" />
<glyph unicode="&#x205f;" horiz-adv-x="480" />
<glyph unicode="&#x2122;" horiz-adv-x="1548" d="M41 1610q0 18 14.5 23t24.5 5h590q10 0 24.5 -14t14.5 -22q-2 -6 -16.5 -24.5t-33 -38t-36 -36t-25.5 -18.5q-16 -10 -36 -7l-21 3q39 47 57 63.5t18 24.5q0 16 -23.5 22t-52 8.5t-54 1t-29.5 -1.5q-25 0 -37 3q0 -6 -2 -73t-3 -173.5t-1 -207.5t4 -177t12 -80 q-35 -10 -67.5 -17.5t-63.5 -11.5q10 14 16.5 46t6.5 40l-3 654l-31 1q-30 1 -66 1t-66.5 -2.5t-30.5 -8.5q0 -29 15.5 -46t45.5 -56l-47 4l-15 11q-15 12 -33.5 29t-34 37t-15.5 38zM721 1645h276q43 0 64 -10.5t35 -10.5q18 0 52 15.5t89 11.5q145 -4 221 -95.5t76 -222.5 q0 -76 -27.5 -154.5t-64.5 -143t-76 -108.5t-61 -53q2 18 21.5 54.5t39.5 90.5t37.5 123.5t17.5 151.5q0 51 -14 107.5t-44 104.5t-72 79t-97 31q-25 0 -40 -8.5t-13 -22.5q0 -6 12 -22.5t26.5 -47t26 -76.5t11.5 -114q0 -98 -25 -179t-57.5 -139.5t-62.5 -93t-40 -39.5 q2 12 13.5 48t23.5 86.5t22.5 113t10.5 127.5q0 57 -10.5 122t-35 120t-63.5 91t-96 36q-20 0 -36.5 -12.5t-16.5 -28.5v-639l5 -18q5 -17 19 -25q-20 -10 -59 -22.5t-76 -24.5l15 74l-5 655q0 8 -4 27.5t-18 40.5z" />
<glyph unicode="&#x25fc;" horiz-adv-x="1064" d="M0 0v1065h1065v-1065h-1065z" />
</font>
</defs>
</svg>
